<?xml version="1.0" encoding="UTF-8"?>
<svg version="1.1" viewBox="0 0 1641 1622" width="1641" height="1622" xmlns="http://www.w3.org/2000/svg">
<path transform="translate(896,340)" d="m0 0h9l13 5 2 1h11l7-1 8 3 13 11 10 5 7 3 11 9 4 3v2l4 2 10 9 15 15v2h2l11 14 13 18 9 16 7 14 7 19 7 25 7 37 2 18v8l-3 7-5 5v14l4 20 1 9v16l-3 19-4 15-8 21-11 24-8 15-12 19-14 21-8 10-11 12-13 13-11 8-15 9-20 9-18 5-5 1h-8l-5-3-1-7 4-8 13-12 8-10 8-13 9-19 4-13 3-25v-27l-4-30-10-29-6-11-1-1h-5l-2 20-4 14-8 14-9 10-4 3h-6l-3-3 1-8 6-17 4-13 1-9v-19l-2-13-5-13-6-11-11-14-7-7-8-5-5-1 2 8 9 19 8 26 2 13v38l-3 14-6 16-8 17-10 16-9 11-9 10-11 10-18 13-15 8-17 6-15 4-6 1h-14l-5-5-2-9-4-1-16-1-10-4-8-6-8-9-7-14-1-5v-8l3-6 7-3 15 5h10l5-3 1-2v-9l-6-8-3-2v-2l-4-2-14-12-17-17-8-11-8-15-6-18-3-15v-9l-3-1v-5l2-3 2-23 6-27 9-27 7-16 4-10 10-19 10-17 12-18 14-18 8-10 6-7 5-5 13-12 12-9 16-11 11-7 20-10 13-3 18-1 10-4 10-5h7l4 1h11zm-79 68-5 16-9 21-10 17-7 10-2 4v9l3 9v27l3 12 1 16 3 5 4 3 11 1 16-1h22v-6l-13-21-7-20-3-17-1-12v-41l1-13v-16l-4-3z"/>
<path transform="translate(1098,784)" d="m0 0 6 1 6 4 9 12 14 18h6l3-1 2-5 10-13 7-10 5-5 7-1 6 4 4 5 2 7 1 8v13l-4 23-4 17-8 17-1 3-1 55 4 8 7 7 13 17 14 20 3 5 2 1h31l5 5 12 22 8 16 11 21 7 10 9 15 7 12 2 7v13l-9 18-2 17v36l-3 6-9 8-6 17-5 5-8 4-9 2-9 7-2 1h-31l-10 8-4 2h-8l-3-1h-13l-7 2h-8l-13-4-3-1h-10l-15 5h-10l-8-2h-11l-8 1-8-3-10-9-6-5-5-2-6-1-38-1-6-5-3-6-4-14-5-5-6-4-2-3-1-42-2-15-8-16-1-8 3-11 7-14 8-12 10-14 9-17 3-3h22l2 1h6l4-5 9-19 14-23 17-25 8-10 6-7 7-6 2-5-1-17v-37l-3-9-7-14-4-15-4-20v-22l2-9 4-6 3-3z" fill="#010CBF"/>
<path transform="translate(896,340)" d="m0 0h9l13 5 2 1h11l7-1 8 3 13 11 10 5 7 3 11 9 4 3v2l4 2 10 9 15 15v2h2l11 14 13 18 9 16 7 14 7 19 7 25 7 37 2 18v8l-3 7-5 5v14l4 20 1 9v16l-3 19-4 15-8 21-11 24-8 15-12 19-14 21-8 10-11 12-13 13-11 8-15 9-20 9-18 5-5 1h-8l-5-3-1-7 4-8 13-12 8-10 8-13 9-19 4-13 3-25v-27l-4-30-10-29-6-11-1-1h-5l-2 20-4 14-8 14-9 10-4 3h-6l-3-3 1-8 6-17 4-13 1-9v-19l-2-13-5-13-6-11-11-14-7-7-8-5-5-1 2 8 9 19 8 26 2 13v38l-3 14-6 16-8 17-10 16-9 11-9 10-11 10-18 13-15 8-17 6-15 4-6 1h-14l-5-5-2-9-4-1-16-1-10-4-8-6-8-9-7-14-1-5v-8l3-6 7-3 15 5h10l5-3 1-2v-9l-6-8-3-2v-2l-4-2-14-12-17-17-8-11-8-15-6-18-3-15v-9l-3-1v-5l2-3 2-23 6-27 9-27 7-16 4-10 10-19 10-17 12-18 14-18 8-10 6-7 5-5 13-12 12-9 16-11 11-7 20-10 13-3 18-1 10-4 10-5h7l4 1h11zm-21 15-3 2 1 7 10 18 8 21 8 30 5 23 7 27 7 21 7 16 13 25 8 12 10 13 12 18 10 18 7 16 1 5-2 2 2 11 4 17 4 30 2 22v11l-2 23-4 18-7 19-9 15-10 10-7 1v-6l6-11 7-11 6-15 5-13 7-34 1-9v-29l-6-26-7-19-8-6-8-16-8-14-15-23-8-14-9-15-4-6-11-16-7-15-4-15-4-33-3-21-11-32-9-19-6-7-15-11-12-6-9-2h-6l-16 7-16 10-17 13-10 9-8 7-16 16-9 11-10 13-15 25-9 17-15 33-11 34-5 26-1 10v16l2 16 5 18 8 16 8 12 12 14 12 11 11 9 7 8 4 8v11l-4 6-10 5h-10l-10-1-4 4 1 9 4 8 8 8 10 5h14l10-5 7-7 7-14 1-6v-11l-5-24-10-28-11-24-8-18-10-26-4-18-1-17 3-23 4-17 6-17 11-23 10-15 6-7 2-1-11 33-7 20-8 29-3 20v20l2 12 10 21 7 10 12 20 8 14 12 26 7 21 3 16v13l-3 12-7 10-9 9-1 6 1 1h11l16-5 16-7 12-8 13-11 11-11 10-13 12-19 10-21 4-16 1-6v-31l-5-26-5-15-8-16-8-11-8-7-9-2-14 1h-18l-9-3-5-6-1-4-1-16-3-9-1-6v-23l-4-15 2-9 14-20 10-19 6-18 6-25 6-11 2-1h7l2 3 1 7-4 44-1 29 1 22 3 21 5 17 8 16 11 13 14 11 11 9 26 26 15 10 10 12 10 18 7 15 8 22 5 22 2 15v34l-3 18-5 20-4 11-2 7-10 11-11 14-5 5-1 6 1 2h10l16-6 16-8 12-8 14-12 13-13 9-11 8-10 13-20 12-21 10-22 8-20 6-22 2-15v-19l-3-20-6-21-7-16-9-17-12-19-13-18-14-19-9-15-6-13-7-26-7-34-2-10 3 3 8 14 8 20 9 29 7 16 8 10 3 4h2v2l8 7 10 11 19 28 3 3 5-1 1-2v-9l-8-36-8-26-11-24-10-16-11-13-9-11-23-23-10-7-14-7-11-8-9-8h-2l-3 6v18l2 17 4 18 1 30 3 17 4 13 5 25 10 26 7 15 7 8 6 5 6 9 13 10 9 8 9 11 7 10 8 15 5 15 2 12v25l-4 22-6 17-8 16-7 8-4 2v-8l7-39 2-16v-13l-3-21-4-15-11-20-8-11-5-5v2l-5-5-10-14-11-20-12-14-7-8-10-13-7-11-7-12-8-21-8-39-4-20-7-25-10-24-5-5-5-4zm-58 53-5 16-9 21-10 17-7 10-2 4v9l3 9v27l3 12 1 16 3 5 4 3 11 1 16-1h22v-6l-13-21-7-20-3-17-1-12v-41l1-13v-16l-4-3z" fill="#979391"/>
<path transform="translate(1361,702)" d="m0 0h18l1 1 13 1v2l9 1 10 4 8 3 15 7v2l4 1 7 6 5 3 3 3v2h2l6 9 5 5 5 10 3 3 5 12 3 3v-9l3-4h2l-1-7-1-1-2-14-3-6-1-5-2-4v-4h2l4 13 4 9 1 6 5-1v8h2l1-3h1v6l-1 3 6 4v6h2l6-10 4-8 3-3 4-9 9-10 5-5 7-6 5-3 1-2 6-2 8-4 9-4 14-5h5v-2l14-1 1-1h18l8 3 5 2 4 9v12l-3 5h-2l-1 3-5 3-4 4h-2l4 9v16l-1 2h-2l-2 4-7 7-1 22-10 10-11 5-2 2-3 11 4 2 7 8 4 2 3 9v15l-4 2 4 5v12l-1 3h-2v5l-5 5h-11v27l-7 7-1 2h-13l-1-1-7-1v-2h-6v-2h-8l-5-5-5-3-6-7v-2l-5-1v-2h-6l-1-3h-5v-3h-3l-3-9-4-6-2-22-2-1 1-8h-10l-1 8-2 6-1 9-2 6-2 7-4 7-4 6-8 7-7 1-8 7-1 2-5 3-1 2-4 2-6-1-1 3-11 2-1 1h-14l-8-7-2-4v-25h-11l-4-5-2-6-2-4v-7l2-5 2-3-3-1-1-3v-10l3-10 5-5h3l2-4 4-5v-7l-3-5v-3l-5-1-8-3-8-8-2-5v-18l-9-9v-2h-2l-1-3v-10l1-7h2l1-6-4-4v-2l-4-1-5-5-4-6v-8l4-8 1-4h6v-2zm122 78v2l2-1z" fill="#060506"/>
<path transform="translate(18,702)" d="m0 0h18l1 1 13 1v2l9 1 10 4 8 3 15 7v2l4 1 7 6 5 3 3 3v2h2l6 9 5 5 5 10 3 3 5 12 3 3v-9l3-4h2l-1-7-1-1-2-14-3-6-1-5-2-4v-4h2l4 13 4 9 1 6 5-1v8h2l1-3h1v6l-1 3 6 4v6h2l6-10 4-8 3-3 4-9 9-10 5-5 7-6 5-3 1-2 6-2 8-4 9-4 14-5h5v-2l14-1 1-1h18l8 3 5 2 4 9v12l-3 5h-2l-1 3-5 3-4 4h-2l4 9v16l-1 2h-2l-2 4-7 7-1 22-10 10-11 5-2 2-3 11 4 2 7 8 4 2 3 9v15l-4 2 4 5v12l-1 3h-2v5l-5 5h-11v27l-7 7-1 2h-13l-1-1-7-1v-2h-6v-2h-8l-5-5-5-3-6-7v-2l-5-1v-2h-6l-1-3h-5v-3h-3l-3-9-4-6-2-22-2-1 1-8h-10l-1 8-2 6-1 9-2 6-2 7-4 7-4 6-8 7-7 1-8 7-1 2-5 3-1 2-4 2-6-1-1 3-11 2-1 1h-14l-8-7-2-4v-25h-11l-4-5-2-6-2-4v-7l2-5 2-3-3-1-1-3v-10l3-10 5-5h3l2-4 4-5v-7l-3-5v-3l-5-1-8-3-8-8-2-5v-18l-9-9v-2h-2l-1-3v-10l1-7h2l1-6-4-4v-2l-4-1-5-5-4-6v-8l4-8 1-4h6v-2zm122 78v2l2-1z" fill="#060506"/>
<path transform="translate(486,877)" d="m0 0h3l51 68 13 17 10 13 26 32 9 11 7 7 9 11 13 13 8 6 7 4 11 3h10l10-4 7-5 5 1 17 9 9 4 16 8 9 6 7 9 2 6 2 1v64l-5 3-9 2-9 3-9 2-8 2-15 2-14 2h-49l-10-6-5-7-4-10-6-20-3-5-2-6-4-9-5-10-8-15-7-12-7-10-9-12-12-13-7-8-10-10-6-4-4-1h-14l-5 5-3 7-1 145-1 1h-14l-2-2-1-41-4-48-3-18-2-16-5-24-4-16-4-15-7-21v-2h-3v-30l2-1 3-14 5-13 9-16 12-15h2l1-3z" fill="#0000FE"/>
<path transform="translate(838,41)" d="m0 0 11 2 9 6 6 9 3 10 1 7v26l-4 85 15 3 13 5 6 4 3 3 4 3 9 1h16l14 2 13 5 9 7 6 7 1 4 3 1-1 6-2 5-7 2-8 3-12-2-5-3-14-1-17-1-1 4h-2l-1 4-9 10-6 5-12 6-14 6-20 5-12 2-8 1h-21l-17-3-8-3-6-3v-2l-5-2-9-11-4-10-4-1-13 5-8 4h-3v2l-11 6-14 9-10 6-25 11-17 6-21 6-33 9-14 4-44 12-17 5-26 7-20 6-8 2h-6l-3-3-3-1 1-5 9-24 1-2 4-1 14-1 4-1v-2l16-8 15-8 21-10 17-9 19-9 16-8 17-8 9-4 20-8 18-6 48-12 6-2 10-2h22l18-3 17-5 16-8 8-5 6-2 27-4 14-1 1-9 2-57v-35l-3-10-4-5-7-3-8 1-7 4-6 10-2 9-1 10v87l-1 1h-13l-1-1-2-107v-37l5-1h10l1 1 1 16 6-9 8-7 5-2zm6 171-25 4-16 6-9 7-3 6v9l3 6 5 4 9 3h22l23-5 12-5 9-7 3-9-2-9-5-5-5-3-12-2z" fill="#FE00CB"/>
<path transform="translate(871,349)" d="m0 0 9 1 10 3h6l8-4 9 2 16 9 5-2 4-3 7 1 11 8 7 6 20 11 14 12 20 20-1 2-24-24-10-7-14-7-11-8-9-8-2-1-2 6v18l2 17 4 18 1 30 3 17 4 13 5 25 10 26 7 15 7 8 6 5 5 8 13 10 10 9 9 11 7 10 8 15 5 15 2 12v25l-4 22-6 17-8 16-7 8-2 2h-3l-1-2 1-11 7-41 1-9v-13l-3-21-4-15-11-20-8-11-3-4h-4l-12-16-12-22-12-14-7-8-10-13-7-11-7-12-8-21-8-39-4-20-7-25-10-24-2-4-4-2-5-3-7-1-2 1 1 7 10 18 8 21 8 30 5 23 7 27 7 21 7 16 13 25 8 12 10 13 12 18 10 18 7 16 1 5-2 2 2 11 4 17 4 30 2 22v11l-2 23-4 18-7 19-9 15-11 11-7 1-1-1v-6l6-11 7-11 6-15 5-13 7-34 1-9v-29l-6-26-7-19-6-4-3-3-9-19-15-24-11-17-9-16-6-10-11-15-8-17-4-15-4-33-3-21-11-32-9-19-5-6-15-11-12-6-9-2h-6l-16 7-16 10-9 7-2-1 7-6 17-11 17-8 6-2h14l15 4 8 6 9 16 6 15 4 8 6 17 5 11 2 11 3 40 2 12 5 14 8 14 10 13 5 5 5 3-3-10-12-28-12-36-7-22-9-45-8-22-10-17-5-6v-7l4-5z" fill="#656565"/>
<path transform="translate(1098,784)" d="m0 0 6 1 6 4 9 12 14 18h6l3-1 2-5 10-13 7-10 5-5 7-1 6 4 4 5 2 7 1 8v13l-4 23-4 17-8 17-1 3-1 55 4 8 7 7 13 17 14 20 3 5 2 1h31l5 5 12 22 8 16 11 21 7 10 9 15 7 12 2 7v13l-9 18-2 17v36l-3 6-9 8-6 17-5 5-8 4-9 2-9 7-2 1h-31l-10 8-4 2h-8l-3-1h-13l-7 2h-8l-13-4-3-1h-10l-15 5h-10l-8-2h-11l-8 1-8-3-10-9-6-5-5-2-6-1-38-1-6-5-3-6-4-14-5-5-6-4-2-3-1-42-2-15-8-16-1-8 3-11 7-14 8-12 10-14 9-17 3-3h22l2 1h6l4-5 9-19 14-23 17-25 8-10 6-7 7-6 2-5-1-17v-37l-3-9-7-14-4-15-4-20v-22l2-9 4-6 3-3zm1 14-3 4-1 6 1 22 4 21 5 12 7 10 1 3v54l1 5v10l-5 5-10 8v2l-3 1-10 13-30 48-8 15-6 12-3 3h-22l-7-1-5 5-12 19-9 15-5 11-1 10 8 18 2 12 5 8 1 8-1 28 7 10 5 13 5 4h32l16 6 10 9 8 6h22l7 2h13l13-5h11l13 5h12l6-2h11l3 1h9l6-4 6-7 2-1 33-1 9-5 10-3 5-6 5-13 7-7 1-2-1-33 6-13 2-12 7-12 1-3v-8l-4-10-11-18-10-15-6-10-12-23-7-13-5-4-28 1-5-5-13-22-12-17-9-10-8-7-7-6-1-2 1-18v-47l4-8 6-9 5-14 3-19 1-18-2-9-2-3h-6l-5 6-9 13-9 14-4 5-5 1-5-4-8-14-11-14-4-5-3-2z" fill="#B5B6D7"/>
<path transform="translate(1099,798)" d="m0 0h5l6 5 8 11 7 10 6 10 4 3 5-1 4-5 9-14 9-13 5-6h6l3 5 1 12-2 20-3 15-5 13-8 12-1 3v51l-1 14 6 7 9 7 8 8 12 17 9 15 8 13 3 2 28-1 5 4 12 23 10 19 7 10 11 17 8 14 2 6v8l-4 8-4 7-3 15-5 10 1 33-7 8-4 8-4 9-5 4-11 3-6 4-33 1-7 6-5 5-2 1h-9l-3-1h-11l-6 2h-12l-13-5h-11l-13 5h-13l-7-2h-22l-8-6-7-7-7-4-12-4h-32l-5-4-6-15-6-8 1-33-4-8-2-3-3-15-6-12-1-9 4-11 9-16 12-19 5-7 5-1 4 1h22l5-6 8-16 7-13 15-24 13-20 7-9 3-4h2l2-4 11-8 2-3v-10l-1-5v-54l-5-9-5-8-4-11-3-18-1-22 2-8zm16 155-8 3-9 8-9 12-14 22-15 24-7 12-9 19-3 4-9 1-22-1-5 5-12 19-9 17-2 5v8l7 15 2 12 8 12v36l9 18 2 2 5-1 22-1 14 7 9 3 4 4h2l2 4 9 7h21l6 2h14l12-5 9-1 14 5 2 1h12l6-2h12l2 1h9l5-4 7-8 5-2h29l8-4 9-2 5-5 5-13 4-6v-36l4-5 4-4 3-15 6-10 2-4v-9l-9-17-16-24-10-17-8-15-5-10-4-3-17 1h-12l-5-5-10-19-11-17-7-9-6-7-8-6-5-2h-10l-5 1h-15z" fill="#353ACF"/>
<path transform="translate(1127,48)" d="m0 0 6 1 36 16 15 8 9 8 5 8 3 9 1 6v14l-4 17-7 13-9 10-13 7 4 8 3 14-1 15-4 15-7 16-9 13-9 9-8 4-4 1h-8l-13-4-26-12-12-5-1-4 16-57 18-63zm10 30-16 53 3 3 29 13 3 1h10l8-5 6-10 3-10v-16l-5-8-9-7-23-11zm-23 78-6 18-13 43v4l26 12 9 3 8-1 6-4 6-7 5-10 3-9 1-6v-12l-3-8-7-7-17-9-16-7z" fill="#C44A9B"/>
<path transform="translate(944,1419)" d="m0 0h12l6 3 6 5 6 10 5 13 5 21 19 97-1 3-17 4-7-37-12-67-5-16-5-6-4-2h-8l-7 4-5 7-3 10v24l12 88v4l-13 3h-5l-5-37-8-66-4-16-4-8-4-3h-11l-8 6-4 8-3 14v20l6 76v12l-16 2-2-1-4-57-6-91v-9l16-1 2 20 6-14 7-9 8-4 8-1 8 3 8 7 7 13 2-4 5-13 6-8 6-5z" fill="#C44A9B"/>
<path transform="translate(75,516)" d="m0 0h12l10 4 12 11 8 13 4 13 2 9 6-5 3-1h11l10 4 11 8 8 8 10 15 5 11 3 13v13l-3 16-9 32-5 20-5-2-11-8-19-13-23-16-22-15-23-16-19-13-14-10 6-26 10-36 7-16 6-8 7-4zm6 25-6 5-6 14-9 32-1 5 10 8 17 12 11 8 2-4 10-36 1-5v-15l-4-10-5-7-9-6-2-1zm55 41-5 4-6 12-7 23-4 16 16 12 14 10 15 11 2-1 11-40v-16l-4-10-6-9-9-8-8-4z" fill="#C44A9B"/>
<path transform="translate(1597,708)" d="m0 0h7l7 3v2l4 2 6 5 1 4v9l-3 5-5 3 2 4 3 3v14l-5 7h-3l-3 11-1 2-21 1 22 2 1 1v9l-4 9-5 4-8 1-19-6-20-3-16-4-15-2-5-3-2-4h-2v10l7 6 1-5 2-1h6l12 4 3 2 22 2 15 4 7 4 1 2 1 11-2 6-23-1-12-5-9-6-9-7h-4l10 7 3 4-1 5-1 1h-6l-5-3-7-3-7-5v-3l-4-2-3-2v-2h-2l-1-17 3-9 1-10 4-6 3-1 1-4 6-7 3-5 6-8 6-4 1-3h3v-4h3v-3l5-3 1-2 12-5 2-2h4v-2l7-2 9-3z" fill="#C04A99"/>
<path transform="translate(254,708)" d="m0 0h7l7 3v2l4 2 6 5 1 4v9l-3 5-5 3 2 4 3 3v14l-5 7h-3l-3 11-1 2-21 1 22 2 1 1v9l-4 9-5 4-8 1-19-6-20-3-16-4-15-2-5-3-2-4h-2v10l7 6 1-5 2-1h6l12 4 3 2 22 2 15 4 7 4 1 2 1 11-2 6-23-1-12-5-9-6-9-7h-4l10 7 3 4-1 5-1 1h-6l-5-3-7-3-7-5v-3l-4-2-3-2v-2h-2l-1-17 3-9 1-10 4-6 3-1 1-4 6-7 3-5 6-8 6-4 1-3h3v-4h3v-3l5-3 1-2 12-5 2-2h4v-2l7-2 9-3z" fill="#C04A99"/>
<path transform="translate(1036,1392)" d="m0 0h11l10 4 12 11 9 13 8 16 7 18 5 19 2 13v28l-4 15-6 11-9 9-8 4-3 1h-9l-9-4-9-7v3l16 68v3l-16 5-3-1-31-141-15-69 10-4 5-1 3 9 2 9h1l4-16 4-8 7-6zm6 26-7 3-6 7-4 11-1 5v22l5 25 6 16 6 10 4 5 10 6h11l9-6 6-11 2-10v-13l-3-17-6-20-8-16-6-8-7-6-7-3z" fill="#C44A9B"/>
<path transform="translate(493,52)" d="m0 0 12 1 9 4 9 7 8 11 6 12 2 9-13 5h-4l-7-14-5-5-4-3-3-1h-11l-10 4-9 6-5 9-1 4v13l4 11 4 6 6 3 4 1h33l14 2 12 6 9 9 6 11 5 14 2 11v22l-3 13-6 12-5 6-10 7-14 4h-8l-10-3-9-6-10-10-9-14-7-15 1-3 12-6h2l8 16 9 10 8 4 3 1h9l10-4 5-4 5-8 2-7v-15l-4-13-4-6-5-4-5-2-6-1h-26l-13-1-11-4-6-4-5-4-7-10-5-11-4-16v-17l3-12 6-11 10-10 10-6 9-3z" fill="#C44A9B"/>
<path transform="translate(1183,1318)" d="m0 0h7l10 3 10 6 10 9 9 11 8 13 7 13-2 4-20 15-27 18-13 8 2 6 9 14 8 7 11 4 10-1 9-6 6-8 3-9v-19l15-7 2 2 3 17v13l-3 14-6 12-8 9-11 7-9 3h-13l-11-4-9-7-8-8-9-14-9-19-8-24-3-14-1-8v-18l3-15 4-9 6-8 7-6zm6 25-10 5-6 7-4 8-1 4v19l2 8 6-2 33-22 10-7-2-5-7-9-8-5-3-1z" fill="#C44A9B"/>
<path transform="translate(991,13)" d="m0 0h14l12 5 7 8 2 10-3 8-5 5-4 1-4-9-5-5-4-2h-8l-6 4-5 8-3 9-1 6v26l5 25 11 33 5 11 8-18 6-21 9 1 4 4v8l-5 15-15 30 8 15 7 6 3 1v11l-3 8-5 4-6-2-7-9-8-16v-2l-11 9-10 6-6 2h-11l-11-4-8-7-6-10-4-13-1-7v-20l3-18 5-15 8-13 8-9 10-7v-25l3-16 5-13 7-9 7-6zm-28 91-8 7-7 11-5 16-1 8v15l3 12 5 8 6 5 5 2h10l9-5 8-8-10-28-8-26-4-17z" fill="#C44A9B"/>
<path transform="translate(450,1278)" d="m0 0 11 6 16 10 22 12 19 10 4 2-3 11-4 13-2 1-26-13-23-13-8-5-5 12-17 43v4l15 9 36 20-3 11-4 13-5-1-25-13-24-14-2-1-1 5-19 49-13 33-2 1-16-10-1-2 15-37 20-48 38-92 6-15z" fill="#C44A9B"/>
<path transform="translate(1483,820)" d="m0 0 4 1 3 2-1 34-1 8-2 6-1 9-2 6-2 7-4 7-4 6-8 7-7 1-8 7-1 2-5 3-1 2-4 2-6-1-1 2-1-1-22-1-4-4-1-3-2-1v-21l10-5 11-4 2-3-16 6-6 2-1-2-6-2-10-1-3-4 1-14 2-5h2v-5l-3-1-2-3 2-10 8-6h3v-3l9-2 1-2 39-1 1-3 11-3 9-4 5-1 3 3-1 7-9 5-5 7-19 8-6 5-9 3-7 3-11 1h-15l1 4h13l14-1 16-7 7-6 17-10h5l3 3-1 6-1 2 5 1 1 4-2 7-5 10-9 10-7 6-6 8-5 2v2l7-2 10-8 4-6 4-5 4 1v2h2l1-8h2l1-5 3-9 2-17 2-5z" fill="#C04A99"/>
<path transform="translate(140,820)" d="m0 0 4 1 3 2-1 34-1 8-2 6-1 9-2 6-2 7-4 7-4 6-8 7-7 1-8 7-1 2-5 3-1 2-4 2-6-1-1 2-1-1-22-1-4-4-1-3-2-1v-21l10-5 11-4 2-3-16 6-6 2-1-2-6-2-10-1-3-4 1-14 2-5h2v-5l-3-1-2-3 2-10 8-6h3v-3l9-2 1-2 39-1 1-3 11-3 9-4 5-1 3 3-1 7-9 5-5 7-19 8-6 5-9 3-7 3-11 1h-15l1 4h13l14-1 16-7 7-6 17-10h5l3 3-1 6-1 2 5 1 1 4-2 7-5 10-9 10-7 6-6 8-5 2v2l7-2 10-8 4-6 4-5 4 1v2h2l1-8h2l1-5 3-9 2-17 2-5z" fill="#C04A99"/>
<path transform="translate(634,1418)" d="m0 0h9l12 4 8 6 7 9 4 12 1 7v14l-7 1h-10l-2-13-5-8-8-4-9-1-8 3-4 7-1 7 3 9 10 8 14 10 10 8 8 8 5 11 2 9v15l-4 17-6 11-8 9-10 5-9 2-12-1-11-4-9-6-8-9-5-13-2-12v-16l1-1h13l4 1 2 15 5 10 5 4 10 4h13l8-5 4-9v-8l-3-6-8-7-14-9-11-9-8-8-5-10-2-9v-14l3-14 5-12 6-8 8-7z" fill="#C44A9B"/>
<path transform="translate(605,69)" d="m0 0h13l12 6 6 8 5 13 4 20 11 63 5 19 2 5v3l-9 2h-5l-4-8-1-6h-2l-2 6-7 10-8 7-11 4-10-1-9-6-7-9-6-16-2-13 1-13 3-10 6-8 7-6 20-11 10-7-1-11-5-10-6-4h-12l-10 4-5 5-3 8-1 11-8 2-7 1-1-2v-19l3-12 6-10 9-8 11-5zm27 76-14 9-15 8-7 8-1 10 3 9 7 6h11l6-3 5-4 6-10 2-6v-18l-2-9z" fill="#C44A9B"/>
<path transform="translate(1262,1257)" d="m0 0 9 1 8 4 10 9 4 6-10 15-7-6-3-2h-10l-8 6-5 8-1 4v7l3 8 6 4 9-1 21-7 11-3h11l10 5 9 9 7 12 5 16v21l-4 12-7 11-8 8-10 6-7 2h-8l-11-4-10-9-8-9-1-3 12-14 5 5 6 5 2 1h11l10-6 6-8 3-7v-13l-4-8-4-3-10 1-22 8-9 2h-11l-7-3-8-6-7-10-6-13-3-13v-15l3-10 6-10 7-7 10-5z" fill="#C44A9B"/>
<path transform="translate(718,283)" d="m0 0 2 1-11 14-3 4h-2l-2 4-2 3h-2v2h-2l-2 5h-2v2l-3 3h-2l-1 4-7 6-3 4h-2l-2 4-5 4-1 2h-2l-1 4h-2l-1 3-8 7-9 9h-2l-2 4-5 4-1 2h-2v2l-5 5h-2v2l-8 7-11 9-5 5-4 2v2l-14 8-10 3h-4l-1 3-13-2-1-7 5-9 6-9 5-9 4-6h2l2-6 7-12 3-5h2l2-7 6-8 1-3h2l2-7h2l1-4 4-6 6-4 17-4 24-7 17-6 10-4 11-5 14-7 4-1v-2z" fill="#FE00CB"/>
<path transform="translate(1326,1187)" d="m0 0h7l10 4 12 10-1 6-6 12-4-2-4-3-9-1-6 4-6 8-3 8 1 11 4 6 3 2h7l29-15 8-3h11l10 5 10 10 7 12 4 12 1 5v18l-4 14-6 10-9 10-9 6-8 2-9-1-12-6-8-7-4-5 2-5 7-12 4 2 6 5 3 1h10l8-6 7-9 3-8v-12l-3-8-4-4-6-1-32 16-9 3h-7l-9-4-8-7-6-7-7-14-3-12v-18l4-12 8-11 8-6z" fill="#C44A9B"/>
<path transform="translate(205,1107)" d="m0 0 11 1 9 4 8 8 6 12 3 13v15l-3 16-6 17-8 15-10 14-9 11-12 12-9 6-9 3h-14l-9-4-8-7-6-8-5-12-3-16 1-16 4-16 8-17 10-14 11-12 11-11 14-9 10-4zm-8 25-10 5-12 10-7 8-9 13-6 12-3 16 1 12 4 10 7 8 7 3h7l10-4 10-9 7-7 11-16 7-15 2-7 1-16-2-9-5-8-6-5-2-1z" fill="#C44A9B"/>
<path transform="translate(1406,1059)" d="m0 0h16l11 4 11 6 11 9 13 12 9 11 7 10 7 15 4 17v20l-4 15-6 11-9 9-10 4h-12l-12-4-13-9-18-18-10-13-8-13-7-15-4-15-1-7v-14l3-13 6-11 7-7zm13 23-8 2-6 5-4 8-1 4v15l3 11 8 16 9 11 10 11 11 8 10 4h7l7-3 5-5 5-10 1-4v-14l-3-12-7-13-9-11-11-11-10-7-9-4z" fill="#C44A9B"/>
<path transform="translate(1098,792)" d="m0 0 7 1 5 5 10 12 10 14 4 5h5l4-5 20-28 5-4 7 1 4 6 1 3v26l-5 25-5 13-7 14-1 57 3 8 13 12 13 17 11 17 7 11 4 3 28-1 5 4 14 27 10 19 11 17 13 21 4 9v13l-8 16-3 15-1 3v37l-3 5-7 6-4 10-4 8-5 4-12 4-8 5-6 1-24-1-7 4-7 7-2 1h-10l-4-1h-9l-7 2h-12l-14-5h-9l-14 5h-14l-8-2h-21l-6-4-9-9-7-4-12-3h-32l-5-3-4-8-4-11-8-8-1-2v-35l-4-14-3-12-6-12v-10l5-12 9-16 7-10 10-17 4-3 28 1 5-5 8-16 9-16 14-22 14-21 10-12 8-7 3-3 1-3-1-64-7-12-6-17-4-26v-16l2-8 2-4zm1 6-3 4-1 6 1 22 4 21 5 12 7 10 1 3v54l1 5v10l-5 5-10 8v2l-3 1-10 13-30 48-8 15-6 12-3 3h-22l-7-1-5 5-12 19-9 15-5 11-1 10 8 18 2 12 5 8 1 8-1 28 7 10 5 13 5 4h32l16 6 10 9 8 6h22l7 2h13l13-5h11l13 5h12l6-2h11l3 1h9l6-4 6-7 2-1 33-1 9-5 10-3 5-6 5-13 7-7 1-2-1-33 6-13 2-12 7-12 1-3v-8l-4-10-11-18-10-15-6-10-12-23-7-13-5-4-28 1-5-5-13-22-12-17-9-10-8-7-7-6-1-2 1-18v-47l4-8 6-9 5-14 3-19 1-18-2-9-2-3h-6l-5 6-9 13-9 14-4 5-5 1-5-4-8-14-11-14-4-5-3-2z" fill="#7476CC"/>
<path transform="translate(1431,367)" d="m0 0h7l10 4 7 8 4 10v15l-3 14 11-13h2l8 15-12 13-11 12-9 10-22 24-9 10-12 13-9 10-12 13-9 10-11 12-5 5-7-11 2-4 7-8 9-10 9-11 13-14 2-3-9 1-8-2-5-5-4-8-1-4v-19l4-16 6-15 8-14 9-12 12-14 13-10 8-4zm-7 24-10 5-14 14-10 14-7 14-3 14 1 11 4 7 4 3 7 1 10-3 9-7 12-12 9-13 6-12 2-9v-14l-4-8-6-5z" fill="#C44A9B"/>
<path transform="translate(206,348)" d="m0 0h10l10 6 10 11 14 19 16 21 9 12 12 14 7 6-6 9-4 3-8-6-2-2-1 22-4 13-8 11-8 4h-7l-8-3-6-4-9-9-7-12-4-14v-12l3-12 12-28 2-6-1-7-4-4v-2l-6-3h-8l-8 7-6 10-2 8 1 10 4 10-2 4-7 9h-2l-8-15-3-10-1-13 2-12 5-13 7-10 6-7zm38 58-8 20-7 17v13l3 6 7 6h6l6-4 6-10 2-8v-13l-2-9-6-11-5-7z" fill="#C44A9B"/>
<path transform="translate(200,935)" d="m0 0 2 1 6 19-1 6-29 58-15 33-1 2 41-11 35-11 3 5 7 14v2l-36 12-31 8-32 7-11 11-8 7-21 21-8 7-7 7h-2l-8-19 1-5 7-7 8-7 15-14 24-22 7-14 15-33 16-33 12-24z" fill="#C44A9B"/>
<path transform="translate(1512,821)" d="m0 0 6 2 1 3 4 1 8 3 4 1v2l5 1 10 3h22l13 1 5 2 10 11 1 2v7l-3 9h2v22l-9 3-7 1-1 24-3 2-17-4-8-5-6-4h-2v3l10 6 10 4 11 2v5l-8 1h-9v4h-2v-2h-6v-2h-4l-5-6-6-3v-2h-2l-3-4-3-1v-3h-3l-3-5-3-8-2-9-3-9 1-3h-2l-2-6 1-21 2 1 3 9 7 7 8 6 10 8 1-1-1-3-10-6-10-9-5-6 1-6 7-1 9 7 10 6 3 1h7l-25-13-11-9-8-7z" fill="#BE4B98"/>
<path transform="translate(169,821)" d="m0 0 6 2 1 3 4 1 8 3 4 1v2l5 1 10 3h22l13 1 5 2 10 11 1 2v7l-3 9h2v22l-9 3-7 1-1 24-3 2-17-4-8-5-6-4h-2v3l10 6 10 4 11 2v5l-8 1h-9v4h-2v-2h-6v-2h-4l-5-6-6-3v-2h-2l-3-4-3-1v-3h-3l-3-5-3-8-2-9-3-9 1-3h-2l-2-6 1-21 2 1 3 9 7 7 8 6 10 8 1-1-1-3-10-6-10-9-5-6 1-6 7-1 9 7 10 6 3 1h7l-25-13-11-9-8-7z" fill="#BE4B98"/>
<path transform="translate(1514,564)" d="m0 0h11l10 4 7 7 5 10 3 10 1 8v9l-3 16-7 16-7 11-14 14-13 9-2-4-11-44-8-27h-2l-7 7-8 14-3 9-1 6v8l3 12 5 8 8 3h6l2 6 1 13-7 2h-13l-9-4-8-9-5-14-1-4v-22l5-17 8-15 8-10 9-10 12-10 13-8zm-2 19-9 3-1 3 12 41 5 18 6-5 5-8 3-10v-19l-4-11-4-6-5-4-5-2z" fill="#C44A9B"/>
<path transform="translate(268,1183)" d="m0 0 4 2 8 10-4 7-14 20-16 23-11 16-10 15-5 11-1 4v12l4 10 8 7 3 1h12l9-6 10-13 13-21 15-24 16-26 7 6 5 5-2 5-17 29-19 32-17 28-16 27-4 6-13-13 2-6 8-13-11 4h-11l-10-5-8-10-4-10-2-9v-12l4-14 7-14 13-18 12-17 26-36z" fill="#C44A9B"/>
<path transform="translate(152,442)" d="m0 0h12l11 4 13 9 15 15-24 48-8 19 8 6 9 4h10l6-3 5-6 3-7 1-5v-10l-3-11-2-6 8-11 3 1 8 17 4 17v13l-3 12-6 11-5 6-10 5h-14l-13-5-12-8-12-11-9-9-9-13-6-12-4-13-1-6v-17l4-14 6-10 9-8zm10 20-8 4-7 10-3 10v16l3 10 6 9 2 1 15-33 10-19-5-5-6-3z" fill="#C44A9B"/>
<path transform="translate(1446,944)" d="m0 0h11l11 4 19 13 18 13 20 14 18 13 5 4-1 8-3 12h-4l-21-16-18-13-21-16-13-8-3-1h-8l-5 3-4 8-1 5v13l3 11 5 9 9 11 15 13 11 9 14 12 11 9 12 10-7 20-6-4-11-10-11-9-13-12-11-9-13-12-11-9-13-12-11-9-2-2 2-9 4-9 12 9-5-13-2-10v-12l3-12 6-10 6-5z" fill="#C44A9B"/>
<path transform="translate(733,45)" d="m0 0h9l11 4 8 7 6 7 6 12 4 14 2 12 1 12v23l-2 17-4 15-7 13-9 9-8 4-10 1-10-3-9-7-9-13-6-15-5-21-2-15v-32l4-17 7-13 8-8 10-5zm1 25-8 4-6 7-4 9-2 10v19l3 21 4 12 6 10 7 6 5 2 9-1 7-5 6-10 3-11 1-9v-18l-2-17-4-12-6-10-8-6-3-1z" fill="#EF5BA1"/>
<path transform="translate(1228,166)" d="m0 0h13l9 4 8 7 6 9 4 13 1 12-2 17-5 16-7 16-8 15-10 14-11 11-12 6-3 1h-11l-9-4-5-4-6-9-3-9-1-5v-23l4-19 8-23 11-21 7-9 4-5 10-7zm-1 24-8 4-6 5-9 14-8 19-4 16v18l4 10 8 7 7 1 9-3 10-9 7-10 10-21 4-14v-19l-4-10-7-6-4-2z" fill="#C44A9B"/>
<path transform="translate(838,41)" d="m0 0 11 2 9 6 6 9 3 10 1 7v26l-4 82-1 4h-14l1-38 1-29v-35l-3-10-4-5-7-3-8 1-7 4-6 10-2 9-1 10v87l-1 1h-13l-1-1-2-107v-37l5-1h10l1 1 1 16 6-9 8-7 5-2z" fill="#C54A9B"/>
<path transform="translate(395,164)" d="m0 0 2 3 13 65 13 57 11 46 3 18v9l-3 10-6 5-5 1-4-5-8-14 2-2 6-2 1-3v-14l-6-21-10-13-13-16-11-14-13-15-9-11-13-15-9-10-7-8 1-4 10-8h3l9 11 11 13 11 14 14 17 15 20 2 2-15-64-8-38v-5l11-8z" fill="#C44A9B"/>
<path transform="translate(1300,210)" d="m0 0 8 6 5 5-13 25-12 22-15 28-6 13-1 4v13l3 6v2l5 2 2 1h7l7-3 7-6 9-13 17-29 15-25 7-11 7 6 5 4-2 6-12 19-17 28-16 26-14 23-9 14h-3l-8-7 1-5 8-14-12 6-9 1-8-4-5-6-4-10v-17l5-17 18-36 10-19 17-33z" fill="#C44A9B"/>
<path transform="translate(278,257)" d="m0 0h2l17 29 10 16 12 20 31 51-6 7-5 4-10-16 1 7v17l-3 9-5 6-5 3-4 1h-8l-10-5-11-11-14-19-13-19-11-15-12-17-7-10 2-4 8-9h2l10 15 33 48 9 12 5 5 5 3h8l5-4 4-10v-12l-4-13-9-17-15-23-12-20-10-16 2-4 7-8z" fill="#C44A9B"/>
<path transform="translate(1489,445)" d="m0 0 3 3 6 13-58 58-6 8-4 8-1 3v12l4 8 6 4h10l11-6 12-11 8-7 13-12 10-9 13-12h2l6 17-7 7-11 9-13 12-11 9-14 13-11 9-14 13-11 9-2 1-5-13 1-4 10-9 1-2h-13l-6-3-5-6-3-7-1-6v-10l3-12 8-14 12-14 15-15 7-8 20-20 7-8z" fill="#C44A9B"/>
<path transform="translate(723,1381)" d="m0 0h1l-1 25-1 15v14l14 2-1 25-1 1h-10l-5-1-6 91v10l3 6 13 3 1 12v12l-3 1h-15l-9-4-6-7-3-9v-21l8-96-10-1-1-1v-10l2-16 12 1 1-20 2-18 7-7z" fill="#C54A9B"/>
<path transform="translate(818,1378)" d="m0 0h2l1 4 7 191v24h-21l-2-95-2-108v-15z" fill="#C54A9B"/>
<path transform="translate(1422,781)" d="m0 0h46l6 2 3 4 1 6v15l-7 7-1 4-9 6-9 4-11 2-2-3 1-5-6 2-18 8-18-2-3-3-2-8 2-5v-3l-14-6v-2l-3-1-3-11 1-7 29-1z" fill="#C14A99"/>
<path transform="translate(79,781)" d="m0 0h46l6 2 3 4 1 6v15l-7 7-1 4-9 6-9 4-11 2-2-3 1-5-6 2-18 8-18-2-3-3-2-8 2-5v-3l-14-6v-2l-3-1-3-11 1-7 29-1z" fill="#C14A99"/>
<path transform="translate(287,186)" d="m0 0 3 3 20 36v2l10-8 5-2 10 19-2 4-9 7 1 5 14 26 13 23 11 20 4 4 6-1 5-4h2l10 17-2 4-6 7-6 3h-7l-7-4-10-14-14-25-14-24-13-23h-2l-6 5h-2l-11-19 6-7 1-3-15-27 1-8z" fill="#C44A9B"/>
<path transform="translate(1393,253)" d="m0 0h17l3 2-14 21-11 16 3 5 8 9-7 11-6 8-6-5-5-6-2-1-2 5-25 37-16 24-2 4v9l5 7-1 5-9 14-7-4-6-8-2-6v-10l4-11 11-18 17-26 13-20 9-14-2-4-5-6 12-19 7 6 3 2 2-5 11-17z" fill="#C44A9B"/>
<path transform="translate(559,1398)" d="m0 0 11 3 2 2-3 13v3l7-9 6-5 9-1 6 3 7 7 2 5-9 20h-3l-4-6-3-2h-8l-8 7-7 16-6 21-18 79-7-1-11-4 4-18 29-119 3-13z" fill="#C44A9B"/>
<path transform="translate(1120,1354)" d="m0 0h9l5 2 2 7 2 18-9-1-5 2-4 6-1 3v16l5 22 20 58 9 25-1 3-15 7-4-9-21-64-24-72v-3l12-5 4 10 2 6 2-17 4-9 5-4z" fill="#C44A9B"/>
<path transform="translate(338,1261)" d="m0 0 4 2 7 7-7 15 9-6 3-1h9l7 6 4 8 2 7-12 14-2 3h-2l-4-11-3-3-7-1-8 4-8 9-10 16-28 52-11 20-4-2-10-10 1-4 13-24 12-21 42-75z" fill="#C44A9B"/>
<path transform="translate(995,570)" d="m0 0 6 1 11 8 14 12 10 13 9 17 5 15 2 12v25l-4 22-6 17-8 16-7 8-2 2h-3l-1-2 1-11 7-41 1-9v-13l-3-21-4-18-11-20-14-20-4-8z" fill="#928E8C"/>
<path transform="translate(664,1)" d="m0 0h3l2 11 24 184-1 4-13 2-9-60-19-131v-7z" fill="#C54A9B"/>
<path transform="translate(1512,821)" d="m0 0 6 2 1 3 4 1 8 3 4 1v2l5 1 10 3h22l13 1 5 2 10 11 1 2v7l-3 9h2v22l-9 3-8 1-14-1-7 1-3-2 1-6h-2v-3l4-2 2-6-6-2v-8l-12-3 3-1h7l-25-13-11-9-8-7z" fill="#BF4A98"/>
<path transform="translate(169,821)" d="m0 0 6 2 1 3 4 1 8 3 4 1v2l5 1 10 3h22l13 1 5 2 10 11 1 2v7l-3 9h2v22l-9 3-8 1-14-1-7 1-3-2 1-6h-2v-3l4-2 2-6-6-2v-8l-12-3 3-1h7l-25-13-11-9-8-7z" fill="#BF4A98"/>
<path transform="translate(1168,802)" d="m0 0 4 1 2 5v12l-3 23-4 13-6 10-4 3h-8l-8-4h-12l-9 3-5-1-7-6-5-11-3-17-1-9v-19l1-2h5l7 8 11 16 5 10 5 5 5 1 5-3 3-4 6-11 14-21z" fill="#010CBF"/>
<path transform="translate(522,1383)" d="m0 0 9 3 6 3-11 42-19 70-10 37-5-1-12-5 1-8 26-90 14-49z" fill="#C44A9B"/>
<path transform="translate(1356,1138)" d="m0 0 5 5 12 14 55 65 9 11 11 13-2 5-7 11h-3l-11-13-11-14-11-13-11-14-11-13-11-14-11-13-11-14v-4z" fill="#C44A9B"/>
<path transform="translate(872,352)" d="m0 0 9 1 12 6 4 5 10 26 8 26 12 60 5 15 8 15 11 16 12 13 3 2h3l-1-9-6-18-4-14-6-29v-5l2 4 4 13 5 25 10 26 7 15 7 8 6 5 5 8 13 10 10 9-1 2-10-9-11-7h-4l1 6 7 12 10 14 11 20-1 3-11-20-8-11-3-4h-4l-12-16-12-22-12-14-7-8-10-13-7-11-7-12-8-21-8-39-4-20-7-25-10-24-2-4-4-2-5-3-7-1-2 1 1 7 10 18 8 21 8 30 5 23 7 27 7 21 7 16 13 25 8 12 10 13 12 18 10 18 7 16 1 5-3 2-6-17-8-16-10-16-11-14-9-12-8-14-11-22-9-24-8-27-6-25-8-35-10-26-12-21 1-6z" fill="#484849"/>
<path transform="translate(1379,707)" d="m0 0h9l5 2 9 1 6 3 6 1v3l4 1 14 7 9 8 4 4v2l5 1 1 4h-2v-2l-15 1h-50l-12-1-7-5-3-6v-9l4-8 5-4z" fill="#C04A98"/>
<path transform="translate(36,707)" d="m0 0h9l5 2 9 1 6 3 6 1v3l4 1 14 7 9 8 4 4v2l5 1 1 4h-2v-2l-15 1h-50l-12-1-7-5-3-6v-9l4-8 5-4z" fill="#C04A98"/>
<path transform="translate(1408,319)" d="m0 0 5 4 6 8-2 5-10 13-14 19-12 16-14 19-12 16-14 19h-3l-7-9 1-4 12-17 39-54 12-17z" fill="#C44A9B"/>
<path transform="translate(1123,879)" d="m0 0 9 2 13 1h5l1 2v25l-1 6 4 10v8l-3 5-6 2h-21l-5-3-2-4v-11l1-3v-34l3-5z" fill="#010CBF"/>
<path transform="translate(1361,702)" d="m0 0h18l1 1 13 1v2l9 1 10 4 4 2-8 1-6-3-13-2-1-1h-9l-9 4-4 3-3 7v9l3 6 6 4-1 5-4 5v9l3 9 6 3v20l3 11 2 1v2l7 2 8 4-2 8-3-1v-3l-5-1-8-3-8-8-2-5v-18l-9-9v-2h-2l-1-3v-10l1-7h2l1-6-4-4v-2l-4-1-5-5-4-6v-8l4-8 1-4h6v-2z" fill="#060606"/>
<path transform="translate(18,702)" d="m0 0h18l1 1 13 1v2l9 1 10 4 4 2-8 1-6-3-13-2-1-1h-9l-9 4-4 3-3 7v9l3 6 6 4-1 5-4 5v9l3 9 6 3v20l3 11 2 1v2l7 2 8 4-2 8-3-1v-3l-5-1-8-3-8-8-2-5v-18l-9-9v-2h-2l-1-3v-10l1-7h2l1-6-4-4v-2l-4-1-5-5-4-6v-8l4-8 1-4h6v-2z" fill="#060606"/>
<path transform="translate(906,354)" d="m0 0 9 1 11 8 6 7 5 2 1-10 2-2h6l-2 6v18l2 17 4 18v28h-1l-2-16-2-6-5-1-1 3h-6l-4-5-3-15-2-14-6-15-6-10-6-7-1-6z" fill="#484849"/>
<path transform="translate(1450,745)" d="m0 0h2v3l4 1v2h2l3 5 2 2v3h2l5 11 1 4-1 2h-28l-19-1-5-3-8-9-1-5 3-10 2-2h36z" fill="#C1499A"/>
<path transform="translate(107,745)" d="m0 0h2v3l4 1v2h2l3 5 2 2v3h2l5 11 1 4-1 2h-28l-19-1-5-3-8-9-1-5 3-10 2-2h36z" fill="#C1499A"/>
<path transform="translate(941,444)" d="m0 0h4l3 10 7 35 8 29 1 9-3 1-8-7-6-7-8-13-7-14-4-18-1-8v-11l1-3h11z" fill="#95918F"/>
<path transform="translate(1612,741)" d="m0 0 7 7v14l-5 7h-3l-3 11-1 2-21 1-3 3-14-3-10-2h-16l-5-1h-22l1-5 51-1 6 2h19l5-3 1-8-11 2-2-1-1 2-6 1-2 1-4-1 2-9 8 1h14l2-1v-10l-1-3h-5v1l-15 2h-5v2h-5l3-1v-2l-7-2-23-1v-3h17l12 1 3-1h13l3-1 5 2h13l1-2z" fill="#BE5098"/>
<path transform="translate(269,741)" d="m0 0 7 7v14l-5 7h-3l-3 11-1 2-21 1-3 3-14-3-10-2h-16l-5-1h-22l1-5 51-1 6 2h19l5-3 1-8-11 2-2-1-1 2-6 1-2 1-4-1 2-9 8 1h14l2-1v-10l-1-3h-5v1l-15 2h-5v2h-5l3-1v-2l-7-2-23-1v-3h17l12 1 3-1h13l3-1 5 2h13l1-2z" fill="#BE5098"/>
<path transform="translate(447,970)" d="m0 0 4 2 4 10 3 9 3 8 2 9 2 5 2 11 2 6 2 13 2 6 2 19 2 8 2 24 2 14 1 18v43l13-1v-142l2-8 5-6 7-3h7l10 3 10 9 8 7 7 8 10 11 8 11 9 13 4 6 6 11 10 19 5 12 4 10 2 6 2 4 2 9 2 3 2 7 5 6 7 4h48l19-3 12-1 9-3 11-2 4-2 9-2 3-2h3v2l-5 3-9 2-9 3-9 2-8 2-15 2-14 2h-49l-10-6-5-7-4-10-6-20-3-5-2-6-4-9-5-10-8-15-7-12-7-10-9-12-12-13-7-8-10-10-6-4-4-1h-14l-5 5-3 7-1 145-1 1h-14l-2-2-1-41-4-48-3-18-2-16-5-24-4-16-4-15-7-21v-2h-3z" fill="#5357CD"/>
<path transform="translate(856,404)" d="m0 0h2l2 5 4 32 4 29 7 41 7 21 3 13-1 5-6-4-6-7-6-14-3-13-5-30-2-29-1-44z" fill="#656565"/>
<path transform="translate(1373,745)" d="m0 0h25l7 3 3 6-2 8-8 1-4 2 10 2 3 1 4 6-1 2-7 6-13 1h-12l-1-1-1-9-6-4-4-9v-9z" fill="#C24D99"/>
<path transform="translate(30,745)" d="m0 0h25l7 3 3 6-2 8-8 1-4 2 10 2 3 1 4 6-1 2-7 6-13 1h-12l-1-1-1-9-6-4-4-9v-9z" fill="#C24D99"/>
<path transform="translate(1395,828)" d="m0 0 3 2 15 2v2h3v2h-10l-1 3-9 1v3l-7 4-4 4-1 8 4 4v5h-2l-2 17 2 6h10l7 3v2l16-7 6-1-2 4-20 8-1 21 3 1 3 5 1 1 22 1 1 3-11 2-1 1h-14l-8-7-2-4v-25h-11l-4-5-2-6-2-4v-7l2-5 2-3-3-1-1-3v-10l3-10 5-5h3l2-4 4-5z" fill="#09090A"/>
<path transform="translate(52,828)" d="m0 0 3 2 15 2v2h3v2h-10l-1 3-9 1v3l-7 4-4 4-1 8 4 4v5h-2l-2 17 2 6h10l7 3v2l16-7 6-1-2 4-20 8-1 21 3 1 3 5 1 1 22 1 1 3-11 2-1 1h-14l-8-7-2-4v-25h-11l-4-5-2-6-2-4v-7l2-5 2-3-3-1-1-3v-10l3-10 5-5h3l2-4 4-5z" fill="#09090A"/>
<path transform="translate(745,475)" d="m0 0h2l-4 16-10 29-5 15-7 27-2 15v20l2 12 10 21 7 10-1 2-9-13-9-16-2-9-1-18 2-21 3-15 9-30 4-11 2-8v-6l-5 5-12 22-7 22-4 22v27l3 16 7 20 8 20 11 24 10 26 6 21 2 10v18l-4 11-7 9-7 6-10 4h-9l-11-4-10-9-5-8-2-6v-7l3-4h7l4 1h13l8-4 3-4 1-3v-8l-2-7 3 3 1 3v11l-4 6-8 5-3 1h-10l-10-1-3 3 1 9 4 8 7 7 10 5h14l10-5 8-9 5-11 1-6v-11l-5-24-10-28-11-24-8-18-10-26-4-18-1-17 3-23 4-17 6-17 11-23 10-15z" fill="#646464"/>
<path transform="translate(743,668)" d="m0 0 3 1 9 16 8 17 8 23 2 11v16l-4 10-7 9-12 6-2-1 1-6 7-11 4-12v-17l-3-16-12-36-2-5z" fill="#FEFEFE"/>
<path transform="translate(1577,835)" d="m0 0 17 1 6 5 4 2 3 9v15l-4 2 4 5v12l-1 3h-2v5l-5 5h-11v27l-7 7-1 2h-13l-7-3 1-3 17-1v-5l-11-1-12-5-9-6 1-4 5 2 9 6 9 3 11 2 1-1 1-24 1-1 15-3 1-22h-2l1-8 1-1v-7l-9-11-2-2-16-3z" fill="#060607"/>
<path transform="translate(234,835)" d="m0 0 17 1 6 5 4 2 3 9v15l-4 2 4 5v12l-1 3h-2v5l-5 5h-11v27l-7 7-1 2h-13l-7-3 1-3 17-1v-5l-11-1-12-5-9-6 1-4 5 2 9 6 9 3 11 2 1-1 1-24 1-1 15-3 1-22h-2l1-8 1-1v-7l-9-11-2-2-16-3z" fill="#060607"/>
<path transform="translate(1372,742)" d="m0 0h77v2h4l1 4h-2v-3h-2v3l-36 1-2 3-2 11 7 9 3 3 3 1 47 2 1-2 3 5-1 2-5-1h-46l-17 3h-29l-1 2 1-14h1l1 9h16l9-1 5-4 2-3-3-4v-2l-14-2 1-2 4-2h8l1-8-2-5-7-3h-25l-4 3 2-4z" fill="#4A4A4B"/>
<path transform="translate(29,742)" d="m0 0h77v2h4l1 4h-2v-3h-2v3l-36 1-2 3-2 11 7 9 3 3 3 1 47 2 1-2 3 5-1 2-5-1h-46l-17 3h-29l-1 2 1-14h1l1 9h16l9-1 5-4 2-3-3-4v-2l-14-2 1-2 4-2h8l1-8-2-5-7-3h-25l-4 3 2-4z" fill="#4A4A4B"/>
<path transform="translate(486,877)" d="m0 0h3l51 68 13 17 10 13 26 32 9 11 7 7 9 11 13 13 8 6 7 4 11 3h10l10-4 7-5 5 1 17 9 9 4 16 8 9 6 7 9 2 6 2 1v8h-2l-5-15-9-10-32-16-15-7-7 1-5 4-7 3h-15l-10-4-9-6-11-9-8-8v-2l-3-1-9-11-9-10-5-6v-2h-2l-11-14-14-17-4-6-12-15-8-11-15-20-10-13-8-11-9-12-2-5-7 1-9 9-9 13-5 10-4 9-3 8-3 17-2 4h-2v-9l2-1 3-14 5-13 9-16 12-15h2l1-3z" fill="#4F53CD"/>
<path transform="translate(1498,822)" d="m0 0 3 1 4 8 1 8v9l2 4 3 16 3 9v5h2l2 10 3 9 1 7-4 1-1-3h-5v-3h-3l-3-9-4-6-2-22-2-1 1-8h-9v-1h8v-26l-1-6z" fill="#9F8690"/>
<path transform="translate(155,822)" d="m0 0 3 1 4 8 1 8v9l2 4 3 16 3 9v5h2l2 10 3 9 1 7-4 1-1-3h-5v-3h-3l-3-9-4-6-2-22-2-1 1-8h-9v-1h8v-26l-1-6z" fill="#9F8690"/>
<path transform="translate(1017,596)" d="m0 0 4 1 8 8 9 15 7 24 1 4v23l-3 14-2 6-3 1-1-1-1-36-2-15-7-20-10-20z" fill="#FEFEFE"/>
<path transform="translate(1483,820)" d="m0 0 4 1 3 2-1 34-1 8-2 6-1 9-2 6-2 7-4 7-4 6-8 7-4-1 4-2 5-5 3-5 2-10-6 2-3 3 1-5h2l1-9h2l1-5 3-9 2-17 2-5z" fill="#9C888F"/>
<path transform="translate(140,820)" d="m0 0 4 1 3 2-1 34-1 8-2 6-1 9-2 6-2 7-4 7-4 6-8 7-4-1 4-2 5-5 3-5 2-10-6 2-3 3 1-5h2l1-9h2l1-5 3-9 2-17 2-5z" fill="#9C888F"/>
<path transform="translate(509,1015)" d="m0 0h7l10 3 10 9 8 7 7 8 10 11 8 11 9 13 4 6 6 11 10 19 5 12 4 10 2 6 2 4 2 9 2 3 2 7 5 6 7 4h48l19-3 12-1 9-3 11-2 4-2 9-2 3-2h3v2l-5 3-9 2-9 3-9 2-8 2-15 2-14 2h-49l-10-6-5-7-4-10-6-20-3-5-2-6-4-9-5-10-8-15-7-12-7-10-9-12-12-13-7-8-10-10-6-4-4-1h-14l-5 5-4 8h-1v-6l6-8z" fill="#5054CD"/>
<path transform="translate(978,404)" d="m0 0 3 1 9 16 8 20 9 29 7 16 8 10 4 4v2l4 2 9 9-1 2-10-10-8-7-9-11-7-16-8-25-6-13-2-1 1 11 6 26 7 17 11 18 11 16-1 2-10-13-10-15-8-15-6-19-7-30-4-22z" fill="#646464"/>
<path transform="translate(1522,848)" d="m0 0 7 1 7 6 10 6v2l10 1 3 2-1 8 6 2-1 6-2 2h-5l-14-9-11-7-11-11-1-6z" fill="#C24A9A"/>
<path transform="translate(179,848)" d="m0 0 7 1 7 6 10 6v2l10 1 3 2-1 8 6 2-1 6-2 2h-5l-14-9-11-7-11-11-1-6z" fill="#C24A9A"/>
<path transform="translate(989,733)" d="m0 0h2l1 2v10l-3 16-5 15-9 16-8 8-3 1-2-3 3-9 7-14 9-21 6-19z" fill="#95918F"/>
<path transform="translate(1529,903)" d="m0 0 16 1 2 4v3l10 6 10 4 11 2v5l-8 1h-9v4h-2v-2h-6v-2h-4l-5-6-6-3v-2h-2l-3-4-3-1v-3h-3z" fill="#C24F99"/>
<path transform="translate(186,903)" d="m0 0 16 1 2 4v3l10 6 10 4 11 2v5l-8 1h-9v4h-2v-2h-6v-2h-4l-5-6-6-3v-2h-2l-3-4-3-1v-3h-3z" fill="#C24F99"/>
<path transform="translate(1529,811)" d="m0 0 6 1 9 7 9 6 12 5 23 2 1-2 7 6-1 2-1-1-17-1-1 2h-26l-10-3-5-2v-2l-8-1-8-4-1-2-5-3-3-6 4 1h3l2 4 8 5 8 3 1 1h6l1-5-4-5-10-7z" fill="#49494A"/>
<path transform="translate(186,811)" d="m0 0 6 1 9 7 9 6 12 5 23 2 1-2 7 6-1 2-1-1-17-1-1 2h-26l-10-3-5-2v-2l-8-1-8-4-1-2-5-3-3-6 4 1h3l2 4 8 5 8 3 1 1h6l1-5-4-5-10-7z" fill="#49494A"/>
<path transform="translate(845,538)" d="m0 0 5 5 6 7 14 11 11 9 26 26 15 10 9 10 10 17 9 19 8 22 5 22 2 15v34l-3 18-5 20-4 11-2 7-10 11-5 6v-3l9-12 5-11 6-15 5-21 2-15v-27l-4-26-5-19-10-25-10-19-7-9-8-7-11-7-16-17-7-8-11-10-14-11-10-9-5-7z" fill="#626262"/>
<path transform="translate(1473,830)" d="m0 0h1v15l-1 18-2-1v-3l-5-2 1-8-2-2-7 1-18 11-6 5-14 6-14 1h-11l-3-3v-2l7-1h13l8-2 12-4 6-4 4-3 17-7 5-7 6-4h3z" fill="#4A4A4B"/>
<path transform="translate(130,830)" d="m0 0h1v15l-1 18-2-1v-3l-5-2 1-8-2-2-7 1-18 11-6 5-14 6-14 1h-11l-3-3v-2l7-1h13l8-2 12-4 6-4 4-3 17-7 5-7 6-4h3z" fill="#4A4A4B"/>
<path transform="translate(823,359)" d="m0 0h14l15 4 8 6 9 16 6 15 4 8-1 4-2-3-10-21-5-6-15-11-12-6-9-2h-6l-16 7-16 10-9 7-2-1 7-6 17-11 17-8z" fill="#636363"/>
<path transform="translate(1442,793)" d="m0 0h26l5 1v6l-8 8-10 7-7 4h-2l2-4 3-5 7-4 1-5-2-3h-6l-2 1-22 3-15 5-9 4h-2v-2l11-6 4-3 17-3 8-3z" fill="#484849"/>
<path transform="translate(99,793)" d="m0 0h26l5 1v6l-8 8-10 7-7 4h-2l2-4 3-5 7-4 1-5-2-3h-6l-2 1-22 3-15 5-9 4h-2v-2l11-6 4-3 17-3 8-3z" fill="#484849"/>
<path transform="translate(892,594)" d="m0 0 5 5 7 12 4 12 1 6v26l-3 15-7 20v8l8-2 7-7 8-15 3-9 1-7 1-24 4-1 5 6 3 5-1 2-3-4h-5l-2 20-4 14-8 14-9 10-4 3h-6l-3-3 1-8 6-17 4-13 1-9v-19l-2-13-5-13-6-11z" fill="#FEFEFE"/>
<path transform="translate(944,568)" d="m0 0 4 2 7 7 11 16 8 15 3 9v6l-4-1-6-9-5-9-8-13-8-14-2-3z" fill="#95918F"/>
<path transform="translate(538,1326)" d="m0 0 9 3 5 2-2 11-5 17-13-5-1-4z" fill="#C54B9B"/>
<path transform="translate(1513,787)" d="m0 0h2l4 5 7 2 11 1 16 4 24 4 15 5h5v2l-6 4-3 1-3-3-7-3-12-3-22-2-8-4-7-2h-8l-1 5-4-2-4-4z" fill="#484849"/>
<path transform="translate(170,787)" d="m0 0h2l4 5 7 2 11 1 16 4 24 4 15 5h5v2l-6 4-3 1-3-3-7-3-12-3-22-2-8-4-7-2h-8l-1 5-4-2-4-4z" fill="#484849"/>
<path transform="translate(486,877)" d="m0 0h3l51 68 13 17 7 9v2h-2l-11-14-27-36-10-13-8-11-9-12-2-5-7 1-9 9-9 13-5 10-4 9-3 8-3 17-2 4h-2v-9l2-1 3-14 5-13 9-16 12-15h2l1-3z" fill="#5054CD"/>
<path transform="translate(1511,832)" d="m0 0 6 4 9 8 9 6 23 12v1h-9l-11-6-6-4-5-4h-7v6l7 8 8 7 10 6 2 5-4-1-9-7-11-9-6-7-2-7-1 14h-1l-1-20-2-9z" fill="#49494A"/>
<path transform="translate(168,832)" d="m0 0 6 4 9 8 9 6 23 12v1h-9l-11-6-6-4-5-4h-7v6l7 8 8 7 10 6 2 5-4-1-9-7-11-9-6-7-2-7-1 14h-1l-1-20-2-9z" fill="#49494A"/>
<path transform="translate(1320,1097)" d="m0 0 4 2 11 13 2 3-1 4-7 11-5-5-11-14v-3z" fill="#C54A9B"/>
<path transform="translate(716,448)" d="m0 0v3l-13 22-9 17-15 33-11 34-5 26-1 10v16l2 16 5 18 8 16 8 12 7 8-1 2-7-7-9-13-8-16-6-21-1-6v-34l5-25 6-20 7-19 12-27 13-25 12-19z" fill="#616161"/>
<path transform="translate(1438,277)" d="m0 0 5 5 6 7-1 5-11 15h-2l-9-12 1-4z" fill="#C44A9B"/>
<path transform="translate(864,479)" d="m0 0 2 1 4 16 3 15 7 20v9l-5-1-5-10-4-14-3-18-1-15z" fill="#95918F"/>
<path transform="translate(1473,812)" d="m0 0v3 3l1 4v5l-3-2-5 1-9 4-11 3-1 2-7 1h-22v-2h-3l1-2 9-3 15-7 3 1-1 5 2 2 10-2 12-6 4-3h2l1-5z" fill="#3D3D3D"/>
<path transform="translate(130,812)" d="m0 0v3 3l1 4v5l-3-2-5 1-9 4-11 3-1 2-7 1h-22v-2h-3l1-2 9-3 15-7 3 1-1 5 2 2 10-2 12-6 4-3h2l1-5z" fill="#3D3D3D"/>
<path transform="translate(823,378)" d="m0 0h7l3 4 1 7-4 44-1 29 1 22 3 21 5 17 7 14-1 2-5-8-5-12-4-16-2-13-1-15v-31l2-29 1-11v-20l-5-2-4 1-2 5-5 13-6 24-4 10-1-3 5-15 6-25 6-11z" fill="#636363"/>
<path transform="translate(1591,746)" d="m0 0h6l2 6v6l-3 3h-11l-10-2-8-2v-5h6v-2l18-3z" fill="#F7F7FA"/>
<path transform="translate(248,746)" d="m0 0h6l2 6v6l-3 3h-11l-10-2-8-2v-5h6v-2l18-3z" fill="#F7F7FA"/>
<path transform="translate(1559,844)" d="m0 0 17 1h6l-1 7-6 2-1 6-3 3-9-2-7-6 1-3 8-1-1-2-4-2z" fill="#EFEFF6"/>
<path transform="translate(216,844)" d="m0 0 17 1h6l-1 7-6 2-1 6-3 3-9-2-7-6 1-3 8-1-1-2-4-2z" fill="#EFEFF6"/>
<path transform="translate(1024,626)" d="m0 0 2 2 5 20 1 8v24l-3 20-3 18v10l3 1 4-4 9-19 6-21 1-5h1l-1 11-7 21-8 16-7 8-2 2h-3l-1-2 1-11 7-41 1-9v-13l-3-21-3-12z" fill="#636363"/>
<path transform="translate(1517,775)" d="m0 0h49l7 3 3 3 3 1v2h-7l-13-3h-16l-5-1h-22z" fill="#49494A"/>
<path transform="translate(174,775)" d="m0 0h49l7 3 3 3 3 1v2h-7l-13-3h-16l-5-1h-22z" fill="#49494A"/>
<path transform="translate(1078,531)" d="m0 0h1l4 21 2 18v8l-3 7-5 5v14l4 20 1 9v16l-3 19-4 15-2 5-1-3 4-13 3-16v-30l-6-29v-12l7-6 1-3v-21l-3-18z" fill="#FEFEFE"/>
<path transform="translate(878,411)" d="m0 0h2l6 16 4 9 2 11 3 40 2 12 5 14 6 11v2l-3-1-8-17-4-15-4-33-3-21-8-24z" fill="#626262"/>
<path transform="translate(987,561)" d="m0 0 9 2 5 5 11 9 9 8-1 2-10-9-11-7h-4l1 6 7 12 10 14 11 20-1 3-11-20-8-11-4-6-5-5-8-14-2-7z" fill="#646464"/>
<path transform="translate(914,361)" d="m0 0 5 1 5 5 6 9 4 12 2 9v6l-4 1-6-18-10-19-2-2z"/>
<path transform="translate(945,645)" d="m0 0h2l10 26 6 25 2 15v34l-3 18-5 20-4 11-2 7-10 11-5 6v-3l9-12 5-11 6-15 5-21 2-15v-27l-4-26-5-19z" fill="#636363"/>
<path transform="translate(906,370)" d="m0 0 5 2 5 8 4 11 1 6v9l-2 2-3-3-10-25-1-9z" fill="#95918F"/>
<path transform="translate(1043,449)" d="m0 0 3 3 10 21 8 24 8 33 2 12v16l-4 2-7-8-11-18 1-2 11 16 2 2h4l1-2v-9l-8-36-8-26-11-24z" fill="#636363"/>
<path transform="translate(1540,863)" d="m0 0 16 1 3 2-1 8 6 2-1 6-2 2-4-1-14-10v-3h6l-7-3-2-1z" fill="#EFEFF6"/>
<path transform="translate(197,863)" d="m0 0 16 1 3 2-1 8 6 2-1 6-2 2-4-1-14-10v-3h6l-7-3-2-1z" fill="#EFEFF6"/>
<path transform="translate(1532,882)" d="m0 0 5 1 5 4 2 1v-5l10 2 5 3-1 7-3 1-4-4h-2l-5 5h-6l-7-9v-5z" fill="#EF5BA1"/>
<path transform="translate(189,882)" d="m0 0 5 1 5 4 2 1v-5l10 2 5 3-1 7-3 1-4-4h-2l-5 5h-6l-7-9v-5z" fill="#EF5BA1"/>
<path transform="translate(1608,732)" d="m0 0 4 1v7l-2 3-13 2-7-1-3-2v-7l4-2z" fill="#F4F4F9"/>
<path transform="translate(265,732)" d="m0 0 4 1v7l-2 3-13 2-7-1-3-2v-7l4-2z" fill="#F4F4F9"/>
<path transform="translate(925,553)" d="m0 0 5 5 7 10 14 23 7 11 8 14 7 15-4-2-3-3-9-19-15-24-11-17-6-11z" fill="#484849"/>
<path transform="translate(1593,765)" d="m0 0h6v8l-6 4h-20l-5-2 1-3 6-3 4-1z" fill="#F5F5F9"/>
<path transform="translate(250,765)" d="m0 0h6v8l-6 4h-20l-5-2 1-3 6-3 4-1z" fill="#F5F5F9"/>
<path transform="translate(1489,794)" d="m0 0h5l3 4 2 5v6h-2v5l-5 4-3-1-3-5-1-1v-10l2-2z" fill="#564852"/>
<path transform="translate(146,794)" d="m0 0h5l3 4 2 5v6h-2v5l-5 4-3-1-3-5-1-1v-10l2-2z" fill="#564852"/>
<path transform="translate(1577,785)" d="m0 0 9 1 4 2v6l-2 2h-18l-7-2-2-4 6-2z" fill="#EDEEF5"/>
<path transform="translate(234,785)" d="m0 0 9 1 4 2v6l-2 2h-18l-7-2-2-4 6-2z" fill="#EDEEF5"/>
<path transform="translate(975,765)" d="m0 0 1 3-7 16-5 9-1 6 2 1 8-7 8-13 6-13 1 3-5 12-9 14-10 10-7 1-1-1v-6l6-11 7-11 5-12z" fill="#646464"/>
<path transform="translate(1483,820)" d="m0 0 4 1 3 2-1 7h-2l-1 13-2 4-1 13-5 8-2-1 2-17 2-5z" fill="#D15797"/>
<path transform="translate(140,820)" d="m0 0 4 1 3 2-1 7h-2l-1 13-2 4-1 13-5 8-2-1 2-17 2-5z" fill="#D15797"/>
<path transform="translate(1413,784)" d="m0 0 3 3 6 3-2 4-7 2-10 1-5-2 3-4-10-2v-2h6l1-1 14-1z" fill="#EDEDF5"/>
<path transform="translate(70,784)" d="m0 0 3 3 6 3-2 4-7 2-10 1-5-2 3-4-10-2v-2h6l1-1 14-1z" fill="#EDEDF5"/>
<path transform="translate(1473,830)" d="m0 0h1v15l-1 18-2-1v-3l-5-2 1-8-2-2-9 1 6-7 5-5 3-2h3z" fill="#4C484C"/>
<path transform="translate(130,830)" d="m0 0h1v15l-1 18-2-1v-3l-5-2 1-8-2-2-9 1 6-7 5-5 3-2h3z" fill="#4C484C"/>
<path transform="translate(1470,863)" d="m0 0h1l-1 14-4 10-3-1-2 4-4 5-5 5-8 7h-6v-2l7-5 5-7 8-7 6-7 5-10z" fill="#49494A"/>
<path transform="translate(127,863)" d="m0 0h1l-1 14-4 10-3-1-2 4-4 5-5 5-8 7h-6v-2l7-5 5-7 8-7 6-7 5-10z" fill="#49494A"/>
<path transform="translate(727,715)" d="m0 0 3 3 1 3v11l-4 6-8 5-3 1h-10l-10-1-3 3 1 9 4 8 7 7 10 5h14l9-3-3 3-8 3h-9l-11-4-10-9-5-8-2-6v-7l3-4h7l4 1h13l8-4 3-4 1-3v-8z" fill="#646464"/>
<path transform="translate(941,475)" d="m0 0 4 2 5 15 1 4v8l-4-2-6-9-3-8 1-8z" fill="#FEFEFE"/>
<path transform="translate(496,889)" d="m0 0 3 1 13 18 10 13 21 28 10 13 7 9v2h-2l-11-14-27-36-10-13-8-11-6-8z" fill="#5053CD"/>
<path transform="translate(730,522)" d="m0 0 1 3-9 32-3 20v20l2 12 10 21 7 10-1 2-9-13-9-16-2-9-1-18 2-21 3-15 8-27z" fill="#626262"/>
<path transform="translate(744,1159)" d="m0 0h3v2l-5 3-9 2-9 3-9 2-8 2-15 2-4 1h-58v-1l47-1 19-3 12-1 9-3 11-2 4-2 9-2z" fill="#3E42CE"/>
<path transform="translate(1472,890)" d="m0 0h3l-1 10-4 6-4 2-2 4-9 3 4-7h2v-6l4-7 4-4z" fill="#EC5BA0"/>
<path transform="translate(129,890)" d="m0 0h3l-1 10-4 6-4 2-2 4-9 3 4-7h2v-6l4-7 4-4z" fill="#EC5BA0"/>
<path transform="translate(1398,749)" d="m0 0h6l2 4-1 8h-17l-2-2 1-4 5-2v-2z" fill="#F8F8FA"/>
<path transform="translate(55,749)" d="m0 0h6l2 4-1 8h-17l-2-2 1-4 5-2v-2z" fill="#F8F8FA"/>
<path transform="translate(670,521)" d="m0 0 1 3-10 31-5 24-1 10v24l2 15 4 14-1 3-5-16-2-11v-9l-3-1v-5l2-3 2-23 6-27 9-27z" fill="#FEFEFE"/>
<path transform="translate(1393,767)" d="m0 0 9 1 6 2 3 4-1 2-1 1h-19l-2-5v-3z" fill="#F3F3F8"/>
<path transform="translate(50,767)" d="m0 0 9 1 6 2 3 4-1 2-1 1h-19l-2-5v-3z" fill="#F3F3F8"/>
<path transform="translate(1567,672)" d="m0 0 4 1 2 2v7l-4 2-1-1h-6l-15 6-7 2-4 3h-3l2-4 5-3 12-4 10-5h3z" fill="#151515"/>
<path transform="translate(224,672)" d="m0 0 4 1 2 2v7l-4 2-1-1h-6l-15 6-7 2-4 3h-3l2-4 5-3 12-4 10-5h3z" fill="#151515"/>
<path transform="translate(896,340)" d="m0 0h9l8 3-3 1-3-1h-11l-5 2h-10l-4-1h-10l-6 3-7 5-4 1h-26v-1l6-1 18-1 10-4 10-5h7l4 1h11z" fill="#FEFEFE"/>
<path transform="translate(823,378)" d="m0 0h7l3 4 1 7-3 24h-1v-30l-5-2-4 1-2 5-5 13-6 24-4 10-1-3 5-15 6-25 6-11z" fill="#626262"/>
<path transform="translate(949,359)" d="m0 0 8 6 6 5 20 11 14 12 20 20-1 2-24-24-10-7-14-7-11-8-8-7z" fill="#636363"/>
<path transform="translate(774,763)" d="m0 0 1 2-6 8-8 8-1 6h11l16-5 14-6 2 1-14 7-20 6-5 1h-9l-3-2 2-5 16-15z" fill="#646464"/>
<path transform="translate(1413,807)" d="m0 0 20 3v3l-10 2-2 4-6 1-4-4v-7h2z" fill="#EBEBF4"/>
<path transform="translate(70,807)" d="m0 0 20 3v3l-10 2-2 4-6 1-4-4v-7h2z" fill="#EBEBF4"/>
<path transform="translate(1414,672)" d="m0 0 4 1 1 5 9 2 8 4 6 2 7 4v2l-4-1-7-3-14-4-1-1h-6-3l-3-1 1-8z" fill="#1F1E1F"/>
<path transform="translate(71,672)" d="m0 0 4 1 1 5 9 2 8 4 6 2 7 4v2l-4-1-7-3-14-4-1-1h-6-3l-3-1 1-8z" fill="#1F1E1F"/>
<path transform="translate(601,1125)" d="m0 0h2l4 10 2 6 2 4 2 9 2 3 2 7 5 6 8 5 48 1v1h-49l-10-6-5-7-4-10-6-20-3-5z" fill="#5D60CD"/>
<path transform="translate(478,1105)" d="m0 0h2l2 27v43l13-1 2-3v5l-1 1h-14l-2-2-1-56z" fill="#474BCE"/>
<path transform="translate(469,1044)" d="m0 0 2 3v2h2l2 19 2 8 2 29 1 14v15h-1l-4-48-3-18-2-16z" fill="#5F62CC"/>
<path transform="translate(709,550)" d="m0 0 1 3-2 13v27l3 16 5 15-1 3-4-8-5-19-2-16 1-16 3-17z" fill="#666"/>
<path transform="translate(1541,743)" d="m0 0h17l12 1 3-1h14l1 2-8 1v2l-3 1h-8l-5-2-23-1z" fill="#49494A"/>
<path transform="translate(198,743)" d="m0 0h17l12 1 3-1h14l1 2-8 1v2l-3 1h-8l-5-2-23-1z" fill="#49494A"/>
<path transform="translate(1547,907)" d="m0 0 5 2 9 6 9 3 12 2-1 3h-2l-1 4v-4l-11-1-12-5-9-6z" fill="#484849"/>
<path transform="translate(204,907)" d="m0 0 5 2 9 6 9 3 12 2-1 3h-2l-1 4v-4l-11-1-12-5-9-6z" fill="#484849"/>
<path transform="translate(1559,842)" d="m0 0 9 1h13l3 2-1 6-4 4-2 1-3 7-1 1-9-1-7-3v-3l-4-1 1-5 6-1-3-3 1-4zm0 2 1 4 3 1 1 2-8 1v4l6 5 9 2 3-3 1-6 6-2 1-7h-11z" fill="#EF5BA1"/>
<path transform="translate(216,842)" d="m0 0 9 1h13l3 2-1 6-4 4-2 1-3 7-1 1-9-1-7-3v-3l-4-1 1-5 6-1-3-3 1-4zm0 2 1 4 3 1 1 2-8 1v4l6 5 9 2 3-3 1-6 6-2 1-7h-11z" fill="#EF5BA1"/>
<path transform="translate(934,818)" d="m0 0v3l-9 10-1 8 13-2 15-6 14-7 9-6 2 1-10 7-16 8-12 5-7 2h-11l-1-1v-6l9-10z" fill="#636363"/>
<path transform="translate(1568,812)" d="m0 0h8v7l-1 1h-8l-12-2-2-1 1-3z" fill="#E3E4F0"/>
<path transform="translate(225,812)" d="m0 0h8v7l-1 1h-8l-12-2-2-1 1-3z" fill="#E3E4F0"/>
<path transform="translate(732,782)" d="m0 0h7l1 1v9l2 4 2 1h16l10-1-3 2-11 2h-14l-5-5-2-9-4-1-16-1v-1z" fill="#FEFEFE"/>
<path transform="translate(1560,889)" d="m0 0 27 1 12 1v1l-16 3-14-1-7 1-3-2z" fill="#484849"/>
<path transform="translate(217,889)" d="m0 0 27 1 12 1v1l-16 3-14-1-7 1-3-2z" fill="#484849"/>
<path transform="translate(1463,886)" d="m0 0 4 1v2l2 1h-2l-1 5-5 10h-4l-2-8 4-6z" fill="#C34A9B"/>
<path transform="translate(120,886)" d="m0 0 4 1v2l2 1h-2l-1 5-5 10h-4l-2-8 4-6z" fill="#C34A9B"/>
<path transform="translate(1595,714)" d="m0 0h6l2 3v5l-4 1-2-1-12-2-1-4z" fill="#E7E7F1"/>
<path transform="translate(252,714)" d="m0 0h6l2 3v5l-4 1-2-1-12-2-1-4z" fill="#E7E7F1"/>
<path transform="translate(766,738)" d="m0 0 3 1v12l-4 10-4 4h-1l1-9 3-10z" fill="#B6B7D8"/>
<path transform="translate(1510,815)" d="m0 0 4 1h3l2 4 8 5 8 3 5 4-9-1-8-3-4-2-1-2-5-3z" fill="#2A2A2A"/>
<path transform="translate(167,815)" d="m0 0 4 1h3l2 4 8 5 8 3 5 4-9-1-8-3-4-2-1-2-5-3z" fill="#2A2A2A"/>
<path transform="translate(1441,882)" d="m0 0 4 4v7l-2 3h-5v-3l3-4-9 3-1-5 9-4z" fill="#B6B7D8"/>
<path transform="translate(98,882)" d="m0 0 4 4v7l-2 3h-5v-3l3-4-9 3-1-5 9-4z" fill="#B6B7D8"/>
<path transform="translate(1570,810)" d="m0 0h7l1 1v8l-3 3h-7l-16-4-1-4 3-2zm-2 2-14 2-1 3 9 2 5 1h8l1-1v-7z" fill="#EF5BA1"/>
<path transform="translate(227,810)" d="m0 0h7l1 1v8l-3 3h-7l-16-4-1-4 3-2zm-2 2-14 2-1 3 9 2 5 1h8l1-1v-7z" fill="#EF5BA1"/>
<path transform="translate(690,729)" d="m0 0 13 4 3 1h13l-2 2h-12l-9-3h-8l-3 1-1 4v11l5 12-1 2-6-12-1-5v-8l3-6z" fill="#FEFEFE"/>
<path transform="translate(1387,713)" d="m0 0 8 3 2 3-2 2-4 1h-7l-4-3 1-5z" fill="#EBEBF4"/>
<path transform="translate(44,713)" d="m0 0 8 3 2 3-2 2-4 1h-7l-4-3 1-5z" fill="#EBEBF4"/>
<path transform="translate(1612,741)" d="m0 0 2 3-7 2-14 1v1l-15 2h-5v2h-5l3-1v-2l9-1v-2l7-2 2-2 5 2h13l1-2z" fill="#878484"/>
<path transform="translate(269,741)" d="m0 0 2 3-7 2-14 1v1l-15 2h-5v2h-5l3-1v-2l9-1v-2l7-2 2-2 5 2h13l1-2z" fill="#878484"/>
<path transform="translate(1504,833)" d="m0 0 2 1v14l2 4 3 16-1 4-1-5-3-1-1-6h-2v-26z" fill="#935E81"/>
<path transform="translate(161,833)" d="m0 0 2 1v14l2 4 3 16-1 4-1-5-3-1-1-6h-2v-26z" fill="#935E81"/>
<path transform="translate(957,774)" d="m0 0h1l-1 9-4 11-2 7-10 11-5 6v-3l9-12 5-11 6-15z" fill="#656565"/>
<path transform="translate(1032,520)" d="m0 0 5 1 9 12 2 7-4-1-8-10-4-7z" fill="#FEFEFE"/>
<path transform="translate(822,361)" d="m0 0h11l12 4 7 6 4 6-4-2-14-8-8-3-8-2z" fill="#484849"/>
<path transform="translate(1451,904)" d="m0 0h2l-1 7-6 3h-8l-4-2v-4h10l6-3z" fill="#F3F3F8"/>
<path transform="translate(108,904)" d="m0 0h2l-1 7-6 3h-8l-4-2v-4h10l6-3z" fill="#F3F3F8"/>
<path transform="translate(1434,866)" d="m0 0h7l-1 3-13 8h-4v-7l8-1v-2z" fill="#E5E5F0"/>
<path transform="translate(91,866)" d="m0 0h7l-1 3-13 8h-4v-7l8-1v-2z" fill="#E5E5F0"/>
<path transform="translate(1473,812)" d="m0 0v3 3l1 4v5l-3-2-5 1-9 4-6 1 2-2 3-1 2-3 9-5 3-1 1-5z" fill="#4A4A4A"/>
<path transform="translate(130,812)" d="m0 0v3 3l1 4v5l-3-2-5 1-9 4-6 1 2-2 3-1 2-3 9-5 3-1 1-5z" fill="#4A4A4A"/>
<path transform="translate(1461,859)" d="m0 0 1 2-6 9-10 6-4 2 2-5 13-12z" fill="#484849"/>
<path transform="translate(118,859)" d="m0 0 1 2-6 9-10 6-4 2 2-5 13-12z" fill="#484849"/>
<path transform="translate(1516,892)" d="m0 0 3 1 3 10v5l-4-1-4-4-2-4v-5z" fill="#E35B9E"/>
<path transform="translate(173,892)" d="m0 0 3 1 3 10v5l-4-1-4-4-2-4v-5z" fill="#E35B9E"/>
<path transform="translate(1526,907)" d="m0 0 1 3h3v3l4 1 2 4h2v2l4 1 7 6v2l-6-1-5-6-3-1-6-7v-2l-5-1v-2l-2-1z" fill="#393939"/>
<path transform="translate(183,907)" d="m0 0 1 3h3v3l4 1 2 4h2v2l4 1 7 6v2l-6-1-5-6-3-1-6-7v-2l-5-1v-2l-2-1z" fill="#393939"/>
<path transform="translate(666,636)" d="m0 0 2 4 5 12 9 15 9 11v3l-7-7-9-13-8-16-2-7z" fill="#5E5E5E"/>
<path transform="translate(1441,880)" d="m0 0 4 2 1 2v11l-3 3-7-1-1-4-5-1-2-2 1-4 2 4 3 1 4-2h3l-3 6h5l1-2v-7l-3-3-3 2-3-1z" fill="#EF5BA1"/>
<path transform="translate(98,880)" d="m0 0 4 2 1 2v11l-3 3-7-1-1-4-5-1-2-2 1-4 2 4 3 1 4-2h3l-3 6h5l1-2v-7l-3-3-3 2-3-1z" fill="#EF5BA1"/>
<path transform="translate(1583,785)" d="m0 0h6l3 2-1 8-2 2-15 1-12-3-3-2 1-4 4-2h8v1l-10 2 1 3 7 2h18l1-5v-2l-6-2z" fill="#EF5BA1"/>
<path transform="translate(240,785)" d="m0 0h6l3 2-1 8-2 2-15 1-12-3-3-2 1-4 4-2h8v1l-10 2 1 3 7 2h18l1-5v-2l-6-2z" fill="#EF5BA1"/>
<path transform="translate(855,562)" d="m0 0 4 1 8 5 5 5-10-3v6l-4-4-4-7z" fill="#FEFEFE"/>
<path transform="translate(1456,910)" d="m0 0 1 3-8 10-5 3-1 2-7 1v-2l6-5 1-2 7-4z" fill="#101010"/>
<path transform="translate(113,910)" d="m0 0 1 3-8 10-5 3-1 2-7 1v-2l6-5 1-2 7-4z" fill="#101010"/>
<path transform="translate(1415,806)" d="m0 0 19 3 1 5-9 2-5 5h-8l-3-4v-8l2 1v6l3 3 7-2 3-3 8-1v-3h-7l-11-2z" fill="#EF5BA1"/>
<path transform="translate(72,806)" d="m0 0 19 3 1 5-9 2-5 5h-8l-3-4v-8l2 1v6l3 3 7-2 3-3 8-1v-3h-7l-11-2z" fill="#EF5BA1"/>
<path transform="translate(727,503)" d="m0 0 1 2-9 17-7 22-3 7-1-2 6-20 5-13 7-12z" fill="#636363"/>
<path transform="translate(922,1047)" d="m0 0h14l-3 3-8 7-3 2z" fill="#FEFEFE"/>
<path transform="translate(1575,760)" d="m0 0 6 1 1 1 11 1-4 2-7 1v2l-5 2-4-1z" fill="#585758"/>
<path transform="translate(232,760)" d="m0 0 6 1 1 1 11 1-4 2-7 1v2l-5 2-4-1z" fill="#585758"/>
<path transform="translate(1431,910)" d="m0 0 2 1-1 3-6 4-11 3h-4v-3l16-6z" fill="#484849"/>
<path transform="translate(88,910)" d="m0 0 2 1-1 3-6 4-11 3h-4v-3l16-6z" fill="#484849"/>
<path transform="translate(1377,731)" d="m0 0h7l4 2v3h-2v2h-10l-3-4z" fill="#E5E5F0"/>
<path transform="translate(34,731)" d="m0 0h7l4 2v3h-2v2h-10l-3-4z" fill="#E5E5F0"/>
<path transform="translate(845,538)" d="m0 0 5 5 6 7 14 11 11 9-3 1-9-8-14-11-8-9z" fill="#5F5F5F"/>
<path transform="translate(559,973)" d="m0 0 4 2 13 16 8 10-1 3-7-8-11-14-6-7z" fill="#4B4FCD"/>
<path transform="translate(1533,884)" d="m0 0 4 1v2l9 3v4l-5 2-7-6z" fill="#DADAEB"/>
<path transform="translate(190,884)" d="m0 0 4 1v2l9 3v4l-5 2-7-6z" fill="#DADAEB"/>
<path transform="translate(1422,888)" d="m0 0h3l-2 4-21 8v-6l1 2 16-7z" fill="#484849"/>
<path transform="translate(79,888)" d="m0 0h3l-2 4-21 8v-6l1 2 16-7z" fill="#484849"/>
<path transform="translate(1598,712)" d="m0 0 5 1 1 2v8l-2 2-4-1-9-2v-1h8l5 1-1-7-17 1 1 3 3 2h-5l-1-1v-5l1-1z" fill="#EF5BA1"/>
<path transform="translate(255,712)" d="m0 0 5 1 1 2v8l-2 2-4-1-9-2v-1h8l5 1-1-7-17 1 1 3 3 2h-5l-1-1v-5l1-1z" fill="#EF5BA1"/>
<path transform="translate(1607,780)" d="m0 0 4 3-1 9h-1l-1-6-27-2v-1l5-1h21z" fill="#484849"/>
<path transform="translate(264,780)" d="m0 0 4 3-1 9h-1l-1-6-27-2v-1l5-1h21z" fill="#484849"/>
<path transform="translate(509,1015)" d="m0 0h7l8 2v1l-18 1-5 5-4 8h-1v-6l6-8z" fill="#484CCE"/>
<path transform="translate(1435,864)" d="m0 0h6l2 1-1 5-8 4-8 5-4-1-1-1v-6l1-2 2 1-1 7 7-3 10-6 1-2-10 1z" fill="#EF5BA1"/>
<path transform="translate(92,864)" d="m0 0h6l2 1-1 5-8 4-8 5-4-1-1-1v-6l1-2 2 1-1 7 7-3 10-6 1-2-10 1z" fill="#EF5BA1"/>
<path transform="translate(914,829)" d="m0 0 2 1-5 7v7l3 3 12 1v1l-5 1h-8l-5-3-1-7 4-8z" fill="#FEFEFE"/>
<path transform="translate(1540,861)" d="m0 0 6 1v1h-6v3l9 3 1 2-7-1 2 4 12 8 1 2-5-2-11-7-1-7-3-2 1-4z" fill="#EB5DA0"/>
<path transform="translate(197,861)" d="m0 0 6 1v1h-6v3l9 3 1 2-7-1 2 4 12 8 1 2-5-2-11-7-1-7-3-2 1-4z" fill="#EB5DA0"/>
<path transform="translate(1453,898)" d="m0 0h2v7l-2 5-1-4 1-2-6 4-9 1-3-2 3-1h6z" fill="#B184A0"/>
<path transform="translate(110,898)" d="m0 0h2v7l-2 5-1-4 1-2-6 4-9 1-3-2 3-1h6z" fill="#B184A0"/>
<path transform="translate(1546,884)" d="m0 0 8 1 5 3-2 6h-3l-5-5-3-2z" fill="#E2E2EF"/>
<path transform="translate(203,884)" d="m0 0 8 1 5 3-2 6h-3l-5-5-3-2z" fill="#E2E2EF"/>
<path transform="translate(1531,904)" d="m0 0 14 2v3h-2l-1 3-9-3-3-2z" fill="#F3F3F8"/>
<path transform="translate(188,904)" d="m0 0 14 2v3h-2l-1 3-9-3-3-2z" fill="#F3F3F8"/>
<path transform="translate(1609,730)" d="m0 0 4 2v8h-1l-1-7-22 1-1 1v8l-3-1 1-9 1-1 14-1z" fill="#EF5BA1"/>
<path transform="translate(266,730)" d="m0 0 4 2v8h-1l-1-7-22 1-1 1v8l-3-1 1-9 1-1 14-1z" fill="#EF5BA1"/>
<path transform="translate(1540,863)" d="m0 0h8l2 2-5 1 8 4 1 3-7 1h-3l-1-4h6l-7-3-2-1z" fill="#B6B7D8"/>
<path transform="translate(197,863)" d="m0 0h8l2 2-5 1 8 4 1 3-7 1h-3l-1-4h6l-7-3-2-1z" fill="#B6B7D8"/>
<path transform="translate(612,1036)" d="m0 0 4 2 11 11 9 7 1 2-5-2-13-11-7-7z" fill="#4C4FCD"/>
<path transform="translate(758,391)" d="m0 0 2 1-28 28v-3l8-9 5-5z" fill="#DBD9D9"/>
<path transform="translate(913,344)" d="m0 0 5 1 2 1h11l7-1 8 3 1 2-6-2-9 1-8 1-11-5z" fill="#FEFEFE"/>
<path transform="translate(539,945)" d="m0 0 5 5 9 12 7 9v2h-2l-11-14-8-11z" fill="#5155CD"/>
<path transform="translate(1406,858)" d="m0 0 14 1-1 4-8 1-2 1-3-3z" fill="#E5E5F1"/>
<path transform="translate(63,858)" d="m0 0 14 1-1 4-8 1-2 1-3-3z" fill="#E5E5F1"/>
<path transform="translate(1478,726)" d="m0 0h2l4 13 4 9v7l-2 4-2-14-3-6-1-5-2-4z" fill="#565555"/>
<path transform="translate(135,726)" d="m0 0h2l4 13 4 9v7l-2 4-2-14-3-6-1-5-2-4z" fill="#565555"/>
<path transform="translate(1e3 592)" d="m0 0 4 2 11 18 6 11-1 3-11-20-8-11z" fill="#606060"/>
<path transform="translate(894,495)" d="m0 0h2l5 16 7 13v2l-3-1-8-17-3-11z" fill="#5F5F5F"/>
<path transform="translate(734,1082)" d="m0 0 4 1 5 7 2 6 2 1v8h-2l-5-15z" fill="#484DCE"/>
<path transform="translate(486,877)" d="m0 0h3l8 11h-3l-3-4v-2l-7 1-6 6h-2l2-4h2l1-3z" fill="#585BCD"/>
<path transform="translate(1482,847)" d="m0 0h1v13l-5 8-2-1 2-7h2v-11z" fill="#EE5AA0"/>
<path transform="translate(139,847)" d="m0 0h1v13l-5 8-2-1 2-7h2v-11z" fill="#EE5AA0"/>
<path transform="translate(588,1097)" d="m0 0h2l9 19 3 6-1 3-4-6-3-7-6-12z" fill="#494DCE"/>
<path transform="translate(1400,725)" d="m0 0 4 1 1 1v5l-7 1-2-6z" fill="#E9E9F2"/>
<path transform="translate(57,725)" d="m0 0 4 1 1 1v5l-7 1-2-6z" fill="#E9E9F2"/>
<path transform="translate(469,1044)" d="m0 0 2 3v2h2l2 22-2 3-3-22z" fill="#5558CD"/>
<path transform="translate(465,1020)" d="m0 0 2 4 2 6 2 13 1 6-2-2v-3h-2l-3-16z" fill="#494DCE"/>
<path transform="translate(1455,899)" d="m0 0 2 1v6l-6 8-8 2-7-1-1-2h11l6-3 2-5v-5z" fill="#EF5BA1"/>
<path transform="translate(112,899)" d="m0 0 2 1v6l-6 8-8 2-7-1-1-2h11l6-3 2-5v-5z" fill="#EF5BA1"/>
<path transform="translate(1395,748)" d="m0 0h10l3 6-2 4-2-8-12 1v2l-5 3-1 3h-2l2-5 2-3z" fill="#C485AB"/>
<path transform="translate(52,748)" d="m0 0h10l3 6-2 4-2-8-12 1v2l-5 3-1 3h-2l2-5 2-3z" fill="#C485AB"/>
<path transform="translate(1558,863)" d="m0 0 6 1 10 4-1 2-11-1-2-1z" fill="#4B4B4C"/>
<path transform="translate(215,863)" d="m0 0 6 1 10 4-1 2-11-1-2-1z" fill="#4B4B4C"/>
<path transform="translate(1416,840)" d="m0 0h7v4l-6 2h-4l-1-4z" fill="#D7D8E9"/>
<path transform="translate(73,840)" d="m0 0h7v4l-6 2h-4l-1-4z" fill="#D7D8E9"/>
<path transform="translate(1413,839)" d="m0 0h12l1 4-1 2-7 2h-6l-2-3 1-4zm3 1-4 2 1 4 6-1 5-2-1-3z" fill="#EF5BA1"/>
<path transform="translate(70,839)" d="m0 0h12l1 4-1 2-7 2h-6l-2-3 1-4zm3 1-4 2 1 4 6-1 5-2-1-3z" fill="#EF5BA1"/>
<path transform="translate(1548,684)" d="m0 0m-3 1 7 1-4 2-8 3-4 3h-3l2-4 5-3z" fill="#292929"/>
<path transform="translate(205,684)" d="m0 0m-3 1 7 1-4 2-8 3-4 3h-3l2-4 5-3z" fill="#292929"/>
<path transform="translate(475,889)" d="m0 0 2 1-11 15-3 5h-2l2-5 9-13z" fill="#5154CD"/>
<path transform="translate(696,1171)" d="m0 0h10v1l-9 1-9 3h-7l4-3z" fill="#4A4ECE"/>
<path transform="translate(1558,869)" d="m0 0 2 3 6 3 1 2-3 6-2 2h-3l-1 2v-3l4-2 2-6-6-2z" fill="#EF5BA1"/>
<path transform="translate(215,869)" d="m0 0 2 3 6 3 1 2-3 6-2 2h-3l-1 2v-3l4-2 2-6-6-2z" fill="#EF5BA1"/>
<path transform="translate(447,970)" d="m0 0 4 2 4 10 1 5h-2l-4-11v-2h-3z" fill="#4D51CD"/>
<path transform="translate(1504,851)" d="m0 0 2 2 1 5-1 2h2l1 7-3-1-1-6h-2v-8z" fill="#EF5BA1"/>
<path transform="translate(161,851)" d="m0 0 2 2 1 5-1 2h2l1 7-3-1-1-6h-2v-8z" fill="#EF5BA1"/>
<path transform="translate(614,1162)" d="m0 0h2l6 8 8 5-3 1-9-6-4-6z" fill="#5054CD"/>
<path transform="translate(1526,907)" d="m0 0 1 3h3v3l4 1 2 4-4-1-3-3v-2l-5-1v-2l-2-1z" fill="#4C4C4C"/>
<path transform="translate(183,907)" d="m0 0 1 3h3v3l4 1 2 4-4-1-3-3v-2l-5-1v-2l-2-1z" fill="#4C4C4C"/>
<path transform="translate(1580,726)" d="m0 0 5 1 1 4-2 2-4-1-1-5z" fill="#EC5FA3"/>
<path transform="translate(237,726)" d="m0 0 5 1 1 4-2 2-4-1-1-5z" fill="#EC5FA3"/>
<path transform="translate(1456,910)" d="m0 0 1 3-8 10-4 1v-2h3l2-6z" fill="#313131"/>
<path transform="translate(113,910)" d="m0 0 1 3-8 10-4 1v-2h3l2-6z" fill="#313131"/>
<path transform="translate(1406,856)" d="m0 0 11 1 5 1-1 4-1-3h-11l-3-1 1 6-2-1v-6z" fill="#EF5BA1"/>
<path transform="translate(63,856)" d="m0 0 11 1 5 1-1 4-1-3h-11l-3-1 1 6-2-1v-6z" fill="#EF5BA1"/>
<path transform="translate(1453,827)" d="m0 0 4 1-7 4-5 2-4-1 2-3 9-2z"/>
<path transform="translate(110,827)" d="m0 0 4 1-7 4-5 2-4-1 2-3 9-2z"/>
<path transform="translate(1414,784)" d="m0 0 4 1 5 4v5l-3 2h-7v-1l7-2 1-3-6-3z" fill="#EF5BA1"/>
<path transform="translate(71,784)" d="m0 0 4 1 5 4v5l-3 2h-7v-1l7-2 1-3-6-3z" fill="#EF5BA1"/>
<path transform="translate(1397,724)" d="m0 0h7l2 2v7l-3-1h2l-2-6-6 1 1 6-4-4 1-4z" fill="#EF5BA1"/>
<path transform="translate(54,724)" d="m0 0h7l2 2v7l-3-1h2l-2-6-6 1 1 6-4-4 1-4z" fill="#EF5BA1"/>
<path transform="translate(1437,685)" d="m0 0 5 1 7 4v2l-4-1-7-3-5-1z" fill="#2D2D2D"/>
<path transform="translate(94,685)" d="m0 0 5 1 7 4v2l-4-1-7-3-5-1z" fill="#2D2D2D"/>
<path transform="translate(496,889)" d="m0 0 3 1 8 11-1 3-8-10z" fill="#4A4ECD"/>
<path transform="translate(1580,746)" d="m0 0 13 1v1l-15 2h-5v2h-5l3-1v-2l9-1z" fill="#AC99B4"/>
<path transform="translate(237,746)" d="m0 0 13 1v1l-15 2h-5v2h-5l3-1v-2l9-1z" fill="#AC99B4"/>
<path transform="translate(680,1053)" d="m0 0 5 1 12 6v2l-5-1-8-4-1-2z" fill="#5357CD"/>
<path transform="translate(556,1049)" d="m0 0 5 4 7 9v2l-4-2-6-8-2-2z" fill="#4A4ECD"/>
<path transform="translate(1559,844)" d="m0 0 12 1v1l-7 1 2 4-5 1 3-1-1-2-4-2z" fill="#B6B7D8"/>
<path transform="translate(216,844)" d="m0 0 12 1v1l-7 1 2 4-5 1 3-1-1-2-4-2z" fill="#B6B7D8"/>
<path transform="translate(975,765)" d="m0 0 1 3-6 14-3 1 2-5 5-12z" fill="#626262"/>
<path transform="translate(496,1171)" d="m0 0h1v5l-1 1h-14v-2l13-1z" fill="#5256CD"/>
<path transform="translate(1502,777)" d="m0 0h3l1 2-1 3h-2v5l-4 2 1-7h2z" fill="#817A7B"/>
<path transform="translate(159,777)" d="m0 0h3l1 2-1 3h-2v5l-4 2 1-7h2z" fill="#817A7B"/>
<path transform="translate(678,665)" d="m0 0h3l8 11 3 3-1 2-7-7z" fill="#5F5F60"/>
<path transform="translate(744,1159)" d="m0 0h3v2l-5 3-11 2 1-3 9-2z" fill="#4D51CD"/>
<path transform="translate(474,1071)" d="m0 0h2l1 5v10h-2l-1-7z" fill="#4B4FCD"/>
<path transform="translate(1437,885)" d="m0 0 2 1v2l-5 4-3-1v-4z" fill="#F3F3F8"/>
<path transform="translate(94,885)" d="m0 0 2 1v2l-5 4-3-1v-4z" fill="#F3F3F8"/>
<path transform="translate(1465,821)" d="m0 0m-1 1m-2 1h2l-1 5-8 3-4-1 5-2 2-3z" fill="#484849"/>
<path transform="translate(122,821)" d="m0 0m-1 1m-2 1h2l-1 5-8 3-4-1 5-2 2-3z" fill="#484849"/>
<path transform="translate(653,600)" d="m0 0h1v13l-1-4-3-1v-5z" fill="#F7F7FA"/>
<path transform="translate(1442,886)" d="m0 0 2 1v8l-1 1h-5v-3l3-1z" fill="#E9EAF3"/>
<path transform="translate(99,886)" d="m0 0 2 1v8l-1 1h-5v-3l3-1z" fill="#E9EAF3"/>
<path transform="translate(1588,742)" d="m0 0 9 3v1l-6 1h-9l3-2z" fill="#969291"/>
<path transform="translate(245,742)" d="m0 0 9 3v1l-6 1h-9l3-2z" fill="#969291"/>
<path transform="translate(1381,712)" d="m0 0h8l5 2v1h-5l-2-1-6 1-2 4-1-5z" fill="#EF5BA1"/>
<path transform="translate(38,712)" d="m0 0h8l5 2v1h-5l-2-1-6 1-2 4-1-5z" fill="#EF5BA1"/>
<path transform="translate(1403,709)" d="m0 0 5 1 8 2-3 2h-5l-4-2z" fill="#212121"/>
<path transform="translate(60,709)" d="m0 0 5 1 8 2-3 2h-5l-4-2z" fill="#212121"/>
<path transform="translate(714,1168)" d="m0 0 1 3-8 2h-10v-1l9-1z" fill="#575BCD"/>
<path transform="translate(1472,902)" d="m0 0 3 1-6 7-4 3-4-1 4-2 5-5z" fill="#AB8F99"/>
<path transform="translate(129,902)" d="m0 0 3 1-6 7-4 3-4-1 4-2 5-5z" fill="#AB8F99"/>
<path transform="translate(1545,876)" d="m0 0 11 7-3 1-7-2z" fill="#C14C9A"/>
<path transform="translate(202,876)" d="m0 0 11 7-3 1-7-2z" fill="#C14C9A"/>
<path transform="translate(1540,863)" d="m0 0h8l2 2-5 1 2 3-5-2-2-1z" fill="#B8B9D9"/>
<path transform="translate(1421,861)" d="m0 0 1 2-4 2-11 1-1-2 2-2 3 1 5 1 1-2z" fill="#9A979B"/>
<path transform="translate(197,863)" d="m0 0h8l2 2-5 1 2 3-5-2-2-1z" fill="#B8B9D9"/>
<path transform="translate(78,861)" d="m0 0 1 2-4 2-11 1-1-2 2-2 3 1 5 1 1-2z" fill="#9A979B"/>
<path transform="translate(1504,833)" d="m0 0 2 1v14l1 4-3-1-1-17z" fill="#BF4F91"/>
<path transform="translate(161,833)" d="m0 0 2 1v14l1 4-3-1-1-17z" fill="#BF4F91"/>
<path transform="translate(1510,815)" d="m0 0 4 1h3l1 4-1 3-4-2z" fill="#484849"/>
<path transform="translate(167,815)" d="m0 0 4 1h3l1 4-1 3-4-2z" fill="#484849"/>
<path transform="translate(460,910)" d="m0 0h2l-3 9-2 5h-1v-6z" fill="#474BCE"/>
<path transform="translate(991,753)" d="m0 0h1l-1 8-2 6h-2l2-10z" fill="#666"/>
<path transform="translate(1484,743)" d="m0 0h2l2 5v7l-2 4z" fill="#373737"/>
<path transform="translate(141,743)" d="m0 0h2l2 5v7l-2 4z" fill="#373737"/>
<path transform="translate(1501,738)" d="m0 0h1l-1 9-1 1-1 10h-1v-11z" fill="#5C5B5B"/>
<path transform="translate(158,738)" d="m0 0h1l-1 9-1 1-1 10h-1v-11z" fill="#5C5B5B"/>
<path transform="translate(1531,904)" d="m0 0 11 2v1l-7 1-2 1-3-2z" fill="#B6B7D8"/>
<path transform="translate(188,904)" d="m0 0 11 2v1l-7 1-2 1-3-2z" fill="#B6B7D8"/>
<path transform="translate(678,1054)" d="m0 0h5l1 2-7 2-3 3h-2l2-4z" fill="#484CCE"/>
<path transform="translate(1453,900)" d="m0 0 2 1-1 6-2 3 1-6-4 3-2-1 3-3h2z" fill="#B6B7D8"/>
<path transform="translate(110,900)" d="m0 0 2 1-1 6-2 3 1-6-4 3-2-1 3-3h2z" fill="#B6B7D8"/>
<path transform="translate(1470,711)" d="m0 0 3 1 4 6v2l-4-2-3-5z" fill="#383838"/>
<path transform="translate(127,711)" d="m0 0 3 1 4 6v2l-4-2-3-5z" fill="#383838"/>
<path transform="translate(1524,699)" d="m0 0 1 3-5 5-3-1z" fill="#505050"/>
<path transform="translate(181,699)" d="m0 0 1 3-5 5-3-1z" fill="#505050"/>
<path transform="translate(918,333)" d="m0 0h7l-2 2-9 1 1-2z" fill="#FD08C7"/>
<path transform="translate(1512,713)" d="m0 0h2l-2 4-3 2 1-4z" fill="#595959"/>
<path transform="translate(169,713)" d="m0 0h2l-2 4-3 2 1-4z" fill="#595959"/>
<path transform="translate(1506,725)" d="m0 0 1 4-1 3h-2l1-5z" fill="#6F6E6E"/>
<path transform="translate(163,725)" d="m0 0 1 4-1 3h-2l1-5z" fill="#6F6E6E"/>
<path transform="translate(1465,705)" d="m0 0 5 4-1 2-4-4z" fill="#787776"/>
<path transform="translate(122,705)" d="m0 0 5 4-1 2-4-4z" fill="#787776"/>
<path transform="translate(1515,708)" d="m0 0h2l-2 4-1-3z" fill="#606060"/>
<path transform="translate(172,708)" d="m0 0h2l-2 4-1-3z" fill="#606060"/>
<path transform="translate(1528,696)" d="m0 0 2 1-3 2z" fill="#6F6E6E"/>
<path transform="translate(185,696)" d="m0 0 2 1-3 2z" fill="#6F6E6E"/>
<path transform="translate(1507,722)" d="m0 0h2v2h-2z" fill="#717070"/>
<path transform="translate(164,722)" d="m0 0h2v2h-2z" fill="#717070"/>
<path transform="translate(1503,734)" d="m0 0" fill="#5C5C5C"/>
<path transform="translate(160,734)" d="m0 0" fill="#5C5C5C"/>
<path transform="translate(1477,723)" d="m0 0" fill="#444"/>
<path transform="translate(134,723)" d="m0 0" fill="#444"/>
<path transform="translate(1449,692)" d="m0 0h2l-1 2z" fill="#666"/>
<path transform="translate(106,692)" d="m0 0h2l-1 2z" fill="#666"/>
<path transform="translate(1464,704)" d="m0 0" fill="#666"/>
<path transform="translate(121,704)" d="m0 0" fill="#666"/>
<path transform="translate(1463,703)" d="m0 0" fill="#95918F"/>
<path transform="translate(120,703)" d="m0 0" fill="#95918F"/>
<path transform="translate(1462,702)" d="m0 0" fill="#95918F"/>
<path transform="translate(119,702)" d="m0 0" fill="#95918F"/>
<path transform="translate(1461,701)" d="m0 0" fill="#95918F"/>
<path transform="translate(118,701)" d="m0 0" fill="#95918F"/>
<path transform="translate(1459,699)" d="m0 0" fill="#666"/>
<path transform="translate(116,699)" d="m0 0" fill="#666"/>
<path transform="translate(1458,698)" d="m0 0" fill="#666"/>
<path transform="translate(115,698)" d="m0 0" fill="#666"/>
<path transform="translate(1532,694)" d="m0 0" fill="#484849"/>
<path transform="translate(1453,694)" d="m0 0" fill="#666"/>
<path transform="translate(189,694)" d="m0 0" fill="#484849"/>
<path transform="translate(110,694)" d="m0 0" fill="#666"/>
</svg>
